<?xml version="1.0" standalone="no"?>
<!DOCTYPE svg PUBLIC "-//W3C//DTD SVG 20010904//EN"
 "http://www.w3.org/TR/2001/REC-SVG-20010904/DTD/svg10.dtd">
<svg version="1.0" xmlns="http://www.w3.org/2000/svg"
 width="1000.000000pt" height="1000.000000pt" viewBox="0 0 1000.000000 1000.000000"
 preserveAspectRatio="xMidYMid meet">
<metadata>
Created by potrace 1.14, written by Peter Selinger 2001-2017
</metadata>
<g transform="translate(0.000000,1000.000000) scale(0.100000,-0.100000)"
fill="#000000" stroke="none">
<path d="M5348 7845 c-2 -1 -44 -6 -94 -9 -86 -6 -105 -9 -179 -21 -214 -36
-461 -138 -625 -259 -64 -46 -59 -43 -140 -121 -81 -79 -156 -179 -215 -287
-26 -49 -51 -90 -56 -93 -5 -4 -30 -8 -56 -11 -213 -23 -409 -77 -576 -158
-158 -77 -257 -146 -367 -256 -107 -106 -177 -205 -235 -333 -44 -96 -51 -101
-150 -112 -32 -4 -67 -8 -76 -10 -9 -2 -34 -6 -55 -9 -70 -11 -224 -55 -302
-87 -354 -141 -645 -423 -741 -719 -47 -146 -48 -158 -49 -1043 l-1 -837 52
-1 c101 -1 200 -8 347 -25 58 -7 303 -52 355 -65 22 -6 51 -13 65 -16 59 -12
304 -89 410 -128 238 -88 403 -162 810 -362 397 -196 476 -233 616 -291 261
-109 452 -166 659 -197 114 -17 105 -18 106 18 0 17 0 253 0 524 0 484 0 493
-22 543 -12 28 -39 65 -59 83 -30 25 -276 169 -415 243 -11 6 -52 29 -90 51
-39 22 -97 55 -130 73 -33 18 -73 41 -90 50 -368 208 -605 342 -665 375 -41
23 -93 53 -115 65 -22 13 -60 34 -85 48 -25 14 -82 47 -128 73 -45 27 -84 49
-87 49 -2 0 -30 15 -62 34 -69 40 -276 156 -353 199 -30 16 -64 35 -75 42 -11
7 -114 65 -230 129 -270 151 -313 177 -319 192 -5 13 41 105 87 174 46 68 165
180 217 203 8 4 30 16 48 27 52 32 142 67 228 90 109 29 148 35 229 34 68 -1
73 -3 204 -78 73 -42 135 -76 137 -76 1 0 35 -19 76 -43 40 -24 93 -55 118
-69 50 -28 260 -146 330 -186 180 -102 583 -330 620 -350 25 -14 95 -53 155
-87 61 -35 133 -75 160 -90 42 -24 304 -171 400 -225 17 -9 140 -79 275 -154
333 -187 329 -184 339 -226 5 -20 9 -394 7 -847 -1 -605 2 -813 10 -813 20 0
181 68 323 136 l136 65 -1 822 c0 452 -4 838 -8 857 -10 43 -50 109 -81 132
-20 15 -579 333 -758 431 -37 21 -82 46 -100 56 -56 32 -986 558 -1133 640
-45 25 -232 131 -416 235 l-335 189 34 70 c95 195 266 336 500 412 43 14 94
28 113 31 19 3 50 9 68 14 18 5 65 8 105 7 76 -2 95 -11 402 -187 22 -13 90
-51 150 -85 61 -34 150 -85 199 -114 49 -28 90 -51 92 -51 1 0 57 -31 124 -70
67 -38 123 -70 125 -70 2 0 36 -19 77 -43 40 -24 98 -57 128 -74 126 -70 218
-122 268 -152 29 -17 55 -31 57 -31 2 0 45 -24 97 -54 51 -29 113 -64 138 -78
25 -14 63 -35 85 -48 22 -12 74 -42 115 -65 92 -51 137 -77 314 -177 76 -43
140 -78 141 -78 9 0 253 -144 269 -158 45 -41 44 -13 42 -1080 -1 -557 1
-1018 5 -1024 5 -7 27 -7 75 1 117 18 137 20 255 26 63 4 119 8 124 9 7 2 10
383 10 1117 l0 1114 -29 59 c-20 40 -42 68 -73 89 -40 29 -136 86 -173 104
-25 12 -366 203 -782 439 -81 46 -167 95 -192 109 -25 14 -67 37 -93 52 -27
14 -66 36 -88 49 -22 12 -101 56 -175 99 -74 42 -169 95 -210 117 -41 23 -82
47 -91 54 -8 8 -19 14 -23 14 -4 0 -53 26 -109 59 -56 32 -129 73 -162 91 -33
18 -136 77 -230 130 -93 53 -214 120 -267 150 -55 30 -100 62 -104 72 -10 31
67 147 150 225 122 116 247 182 439 230 121 30 198 35 248 18 32 -12 273 -146
843 -469 54 -31 100 -56 101 -56 1 0 42 -23 91 -51 49 -29 109 -63 134 -77 25
-14 113 -63 195 -110 83 -46 170 -96 195 -110 25 -14 115 -64 200 -112 85 -48
333 -187 550 -309 217 -122 407 -235 421 -250 l27 -29 -2 -1451 c-1 -1286 1
-1451 14 -1452 35 -2 216 -52 339 -94 58 -19 108 -35 112 -35 4 0 7 721 8
1603 1 1798 6 1672 -72 1753 -32 33 -178 119 -597 355 -549 308 -587 330 -665
374 -271 153 -349 197 -400 225 -33 18 -112 62 -175 98 -63 36 -133 76 -155
88 -22 12 -69 38 -105 59 -36 20 -90 51 -120 67 -56 31 -171 96 -245 138 -22
13 -69 39 -105 58 -36 20 -82 46 -102 59 -21 13 -39 23 -42 23 -2 0 -53 28
-113 63 -60 35 -129 73 -154 85 -41 20 -164 54 -171 47z"/>
<path d="M7827 7644 c-1 -1 -74 -5 -162 -8 -88 -4 -173 -8 -190 -10 -16 -2
-75 -7 -130 -11 -55 -4 -106 -8 -115 -10 -8 -2 -49 -6 -90 -10 -41 -3 -82 -8
-90 -10 -8 -2 -44 -7 -80 -10 -36 -4 -72 -9 -81 -10 -9 -2 -40 -6 -70 -10 -30
-3 -79 -10 -109 -15 -30 -5 -73 -12 -95 -15 -22 -3 -51 -8 -63 -11 -13 -3 -40
-7 -60 -10 -21 -3 -77 -13 -127 -22 l-90 -18 70 -40 c39 -22 111 -63 160 -91
50 -28 149 -83 220 -123 72 -40 191 -108 265 -150 74 -42 142 -80 150 -83 8
-4 31 -17 50 -28 19 -12 58 -34 85 -49 28 -15 151 -85 275 -155 124 -70 245
-139 270 -153 25 -14 97 -54 160 -90 63 -36 124 -70 135 -76 156 -83 386 -218
416 -244 69 -59 106 -138 115 -247 2 -33 8 -62 12 -66 4 -4 29 -9 56 -13 27
-3 72 -10 100 -16 28 -5 107 -21 176 -34 142 -28 378 -80 430 -96 59 -17 61
-14 28 63 -49 113 -219 442 -282 547 -297 488 -686 938 -1099 1270 l-69 55
-85 0 c-46 0 -85 0 -86 -1z"/>
<path d="M5100 7055 c0 -18 520 -343 780 -488 30 -16 69 -38 85 -47 139 -78
443 -239 830 -440 204 -106 315 -165 358 -189 21 -12 36 -18 33 -13 -3 5 -78
52 -168 106 -90 54 -203 123 -253 153 -49 31 -103 64 -120 73 -16 10 -91 55
-165 100 -221 136 -262 160 -266 160 -5 0 -151 88 -186 112 -15 10 -30 18 -34
18 -3 0 -32 15 -63 34 -31 19 -90 52 -131 74 -41 22 -109 59 -150 81 -151 83
-550 275 -550 266z"/>
<path d="M5845 6482 c11 -9 76 -56 175 -124 81 -56 388 -241 495 -298 44 -24
100 -54 125 -68 25 -13 151 -78 280 -145 129 -66 308 -157 398 -203 166 -86
211 -103 100 -39 -35 20 -94 56 -133 80 -38 24 -94 59 -124 77 -29 18 -65 41
-80 50 -14 10 -39 25 -56 34 -16 9 -37 22 -45 29 -8 7 -31 22 -50 33 -19 11
-109 65 -200 120 -233 141 -397 231 -594 327 -166 81 -310 144 -291 127z"/>
<path d="M3716 6182 c118 -85 504 -332 519 -332 2 0 30 -15 62 -34 107 -62
215 -119 746 -390 136 -69 247 -124 247 -122 0 2 -35 25 -77 51 -43 25 -138
84 -212 131 -73 46 -138 84 -142 84 -5 0 -9 5 -9 10 0 6 -5 10 -11 10 -6 0
-29 13 -52 29 -46 31 -292 179 -451 270 -190 110 -620 321 -652 321 -4 0 11
-13 32 -28z"/>
<path d="M3815 5932 c40 -35 474 -311 605 -384 25 -14 88 -50 140 -80 120 -69
272 -152 420 -230 271 -143 405 -213 685 -358 88 -45 184 -96 213 -112 28 -16
52 -28 52 -25 0 2 -97 62 -215 133 -119 71 -235 141 -258 156 -23 14 -56 35
-73 45 -26 15 -147 88 -209 126 -11 7 -31 19 -45 28 -24 16 -416 245 -475 279
-16 9 -55 30 -85 47 -30 17 -104 57 -165 91 -108 59 -540 273 -580 286 -12 4
-16 4 -10 -2z"/>
<path d="M7217 5859 c7 -7 15 -10 18 -7 3 3 -2 9 -12 12 -14 6 -15 5 -6 -5z"/>
<path d="M4720 5763 c1 -9 34 -33 200 -143 106 -71 385 -240 396 -240 2 0 21
-10 42 -23 57 -36 190 -106 502 -265 157 -79 323 -164 369 -189 46 -24 85 -43
86 -41 2 2 -69 48 -158 102 -89 55 -199 124 -244 153 -45 29 -87 53 -92 53 -6
0 -11 3 -11 8 0 4 -10 12 -23 18 -12 6 -82 48 -155 93 -74 44 -138 81 -143 81
-5 0 -9 5 -9 10 0 6 -4 10 -9 10 -4 0 -66 33 -137 73 -162 92 -361 193 -484
246 -52 23 -103 46 -112 51 -10 6 -18 7 -18 3z"/>
<path d="M1260 5262 c-315 -227 -590 -442 -840 -658 -255 -219 -238 -202 -244
-259 -16 -144 -26 -335 -19 -335 2 0 23 13 46 28 174 117 586 352 902 513
l250 128 1 233 c1 241 5 297 29 388 8 30 13 55 12 56 -1 2 -63 -41 -137 -94z"/>
<path d="M2510 5324 c0 -8 335 -225 495 -321 163 -97 432 -249 590 -333 55
-29 123 -65 150 -80 56 -31 221 -117 460 -240 273 -141 349 -181 383 -202 17
-11 32 -17 32 -14 0 3 -37 27 -82 54 -46 27 -177 107 -293 177 -315 192 -792
477 -860 514 -33 18 -64 36 -70 41 -5 4 -55 31 -110 60 -55 29 -104 56 -110
60 -35 27 -585 294 -585 284z"/>
<path d="M5307 5289 c7 -7 15 -10 18 -7 3 3 -2 9 -12 12 -14 6 -15 5 -6 -5z"/>
<path d="M3150 5129 c30 -24 316 -211 375 -245 11 -6 93 -55 183 -108 89 -53
165 -96 167 -96 3 0 22 -10 43 -23 55 -35 194 -111 532 -290 47 -24 153 -79
235 -122 213 -110 346 -180 453 -237 50 -27 92 -47 92 -44 0 3 -119 75 -233
141 -14 8 -511 312 -626 382 -20 13 -43 26 -51 30 -8 4 -37 21 -65 38 -63 40
-389 226 -515 294 -125 68 -595 301 -606 301 -5 0 2 -9 16 -21z"/>
<path d="M8649 3921 c-1 -3 -2 -273 -3 -600 -1 -385 2 -598 9 -606 5 -6 39
-24 75 -40 254 -109 524 -270 725 -433 44 -36 85 -69 92 -74 8 -7 26 34 63
149 42 130 118 408 136 497 29 147 48 259 59 351 4 28 8 57 10 65 5 19 19 173
19 223 l1 38 -138 60 c-312 133 -1044 392 -1048 370z"/>
<path d="M1160 3865 c-91 -30 -165 -55 -165 -55 0 -1 -7 -3 -15 -5 -8 -2 -60
-20 -115 -40 -55 -20 -120 -43 -145 -52 -55 -19 -435 -171 -507 -203 l-52 -23
5 -61 c3 -34 6 -76 8 -95 1 -19 8 -37 14 -39 6 -2 49 8 94 21 122 37 276 74
423 101 136 25 172 30 355 51 25 2 99 7 165 11 66 3 121 7 123 8 1 2 3 99 5
217 2 183 0 214 -13 216 -8 1 -89 -22 -180 -52z"/>
</g>
</svg>
