<?xml version="1.0" encoding="utf-8"?>
<!-- Generator: Adobe Illustrator 27.6.1, SVG Export Plug-In . SVG Version: 6.00 Build 0)  -->
<svg version="1.1" id="Layer_1" xmlns="http://www.w3.org/2000/svg" xmlns:xlink="http://www.w3.org/1999/xlink" x="0px" y="0px"
	 viewBox="0 0 634.4 156.9" style="enable-background:new 0 0 634.4 156.9;" xml:space="preserve">
<style type="text/css">
	.st0{fill:#F9ED91;}
	.st1{fill:#FDC482;}
	.st2{fill:#CC7996;}
	.st3{fill:#2E3E68;}
</style>
<g>
	<path class="st0" d="M274.2,156.9h16.5h196.1h64.1h83.5V70.2V5.1C488.4,86.2,367.9,131.8,274.2,156.9z"/>
</g>
<g>
	<path class="st1" d="M274.2,156.9h16.5h196.1h64.1c28.7-26.4,55.8-54.4,81.2-84c0.8-0.9,1.5-1.8,2.3-2.7V40.6V5.1
		C488.4,86.2,367.9,131.8,274.2,156.9z"/>
</g>
<g>
	<path class="st2" d="M274.2,156.9h16.5h196.1c3.6-2.3,7.2-4.6,10.8-7c48.9-32.1,94.7-68.7,136.8-109.3V10.7V5.1
		C488.4,86.2,367.9,131.8,274.2,156.9z"/>
</g>
<path id="Path_66" class="st3" d="M264.5,119.4C177.3,138.1,88.9,150.6,0,156.9h290.7c42.7-8.9,84.8-20.8,125.9-35.4
	c81.5-28.9,155-67,217.8-110.7V0C525.3,49.3,400,90.6,264.5,119.4z"/>
</svg>
