<svg xmlns="http://www.w3.org/2000/svg" width="634.39" height="156.86" viewBox="0 0 634.39 156.86">
  <g id="corner-flair" transform="translate(-32.25 -5.77)">
    <path id="Path_63" data-name="Path 63" d="M583.18,162.63h83.46V75.93c-.75.89-1.5,1.77-2.26,2.66A968.351,968.351,0,0,1,583.18,162.63Z" fill="#f9ed91"/>
    <path id="Path_64" data-name="Path 64" d="M519.03,162.63h64.14a968.4,968.4,0,0,0,81.2-84.04c.76-.89,1.51-1.77,2.26-2.66V46.35A949.121,949.121,0,0,1,529.78,155.64Q524.41,159.18,519.03,162.63Z" fill="#fdc482"/>
    <path id="Path_65" data-name="Path 65" d="M448.86,127.23a963.554,963.554,0,0,1-125.9,35.4H519.03q5.385-3.45,10.75-6.99A949.807,949.807,0,0,0,666.63,46.35V16.51C603.87,60.23,530.32,98.3,448.85,127.23Z" fill="#cc7996"/>
    <path id="Path_66" data-name="Path 66" d="M296.71,125.21A1901.118,1901.118,0,0,1,32.25,162.63h290.7a964.43,964.43,0,0,0,125.9-35.4c81.47-28.93,155.02-67,217.78-110.72V5.77C557.52,55.12,432.21,96.41,296.71,125.21Z" fill="#2e3e68"/>
  </g>
</svg>
