<?xml version="1.0" encoding="utf-8"?>
<!-- Generator: Adobe Illustrator 27.6.1, SVG Export Plug-In . SVG Version: 6.00 Build 0)  -->
<svg version="1.1" id="a" xmlns="http://www.w3.org/2000/svg" xmlns:xlink="http://www.w3.org/1999/xlink" x="0px" y="0px"
	 viewBox="0 0 242.4 162.9" style="enable-background:new 0 0 242.4 162.9;" xml:space="preserve">
<style type="text/css">
	.st0{fill:#F5EE77;}
	.st1{fill:#FBB865;}
	.st2{fill:#F28171;}
	.st3{fill:#BE5E80;}
	.st4{fill:#FFFFFF;}
</style>
<path class="st0" d="M233.1,74.5c-8-19.2-20.9-36-37-48.7C175.4,9.7,149.4,0,121.2,0C59.1,0,7.8,46.8,0.8,107.1
	c-0.4,3.2-0.6,6.4-0.7,9.7c-0.1,1.5-0.1,3-0.1,4.5c0,2.9,0.1,5.8,0.3,8.6c0.1,1.7,0.3,3.3,0.5,5c11.6-3.6,21.9-5,31.3-4.9
	c0-3.9,0-7.7,0-11.6c0-6.4,0-12.8,0-19.2c0-2.7,0-5.5,0-8.2c0-3.6,0.7-6.8,2-9.7c2.1-4.8,5.7-8.7,10.3-12c6-4.2,12.8-6.2,20-6.9
	c0.4,0,1.1-0.4,1.2-0.8c3.6-9.2,10.5-14.7,19.5-18.1c3.7-1.4,7.5-2.1,11.4-2.4c0.4,0,1-0.3,1.2-0.7c4.5-9.7,12.3-15.1,22.3-17.9
	c3.1-0.8,6.4-1.2,9.6-1.3c1.6-0.1,3.4,0.4,4.9,1.2c5.2,2.9,10.5,5.9,15.7,8.8c11.8,6.6,23.5,13.2,35.3,19.8c7.1,4,14.1,8,21.2,11.9
	c2.6,1.4,3.8,3.4,3.8,6.5c0,0.2,0,0.5,0,0.7c0,16.1,0,32.2,0,48.3c0,10,0,20.1,0,30.1c10.1,3.8,18.6,9.2,24.7,14.6
	c3.8-10.5,6.3-21.6,7.1-33.2c0.2-2.8,0.3-5.7,0.3-8.6C242.4,104.7,239.1,88.9,233.1,74.5z"/>
<g>
	<path class="st1" d="M0.1,116.7c-0.1,1.5-0.1,3-0.1,4.5c0,2.9,0.1,5.8,0.3,8.6c0.1,1.7,0.3,3.3,0.5,5c11.6-3.6,21.9-5,31.3-4.9
		c0-3.9,0-7.7,0-11.6c0-6.4,0-12.8,0-19.2c0-2.7,0-5.5,0-8.2c0-3.6,0.7-6.8,2-9.7c-12,8.2-23.1,16.9-33.2,26
		C0.5,110.2,0.2,113.5,0.1,116.7z"/>
	<path class="st1" d="M233.1,74.5c-8-19.2-20.9-36-37-48.7c-14.6,0.2-30.1,1.9-46,5.1c11.8,6.6,23.5,13.2,35.3,19.8
		c7.1,4,14.1,8,21.2,11.9c2.6,1.4,3.8,3.4,3.8,6.5c0,0.2,0,0.5,0,0.7c0,16.1,0,32.2,0,48.3c0,10,0,20.1,0,30.1
		c10.1,3.8,18.6,9.2,24.7,14.6c3.8-10.5,6.3-21.6,7.1-33.2c0.2-2.8,0.3-5.7,0.3-8.6C242.4,104.7,239.1,88.9,233.1,74.5z"/>
</g>
<g>
	<path class="st2" d="M233.1,74.5c-7.3-1.9-14.8-3.4-22.7-4.6c0,16.1,0,32.2,0,48.3c0,10,0,20.1,0,30.1c10.1,3.8,18.6,9.2,24.7,14.6
		c3.8-10.5,6.3-21.6,7.1-33.2c0.2-2.8,0.3-5.7,0.3-8.6C242.4,104.7,239.1,88.9,233.1,74.5z"/>
	<path class="st2" d="M0,121.2c0,2.9,0.1,5.8,0.3,8.6c0.1,1.7,0.3,3.3,0.5,5c11.6-3.6,21.9-5,31.3-4.9c0-3.9,0-7.7,0-11.6
		c0-6.4,0-12.8,0-19.2c-11.4,5.4-22,11.3-32,17.7C0.1,118.2,0,119.7,0,121.2z"/>
</g>
<path class="st3" d="M210.3,148.3c10.1,3.8,18.6,9.2,24.7,14.6c3.8-10.5,6.3-21.6,7.1-33.2c-9.9-4.4-20.5-8.3-31.7-11.5
	C210.3,128.2,210.3,138.3,210.3,148.3z"/>
<path class="st3" d="M32.1,129.9c0-3.9,0-7.7,0-11.6c-11.2,3.3-21.8,7.2-31.7,11.6c0.1,1.7,0.3,3.3,0.5,5
	C12.4,131.2,22.7,129.8,32.1,129.9z"/>
<path class="st3" d="M210.3,148.3c10.1,3.8,18.6,9.2,24.7,14.6c3.8-10.5,6.3-21.6,7.1-33.2c-9.9-4.4-20.5-8.3-31.7-11.5
	C210.3,128.2,210.3,138.3,210.3,148.3z"/>
<path class="st3" d="M32.1,129.9c0-3.9,0-7.7,0-11.6c-11.2,3.3-21.8,7.2-31.7,11.6c0.1,1.7,0.3,3.3,0.5,5
	C12.4,131.2,22.7,129.8,32.1,129.9z"/>
<path class="st4" d="M167.2,93.9c0-1.8-0.5-2.7-2.1-3.5c-21.9-12.3-43.7-24.6-65.6-37c-1.8-1-3.5-0.9-5.3-0.5
	c-6.3,1.1-11.9,3.5-15.8,8.9c-1,1.3-1.6,2.9-2.4,4.4c7,4,13.8,7.8,20.5,11.5c15.6,8.8,31.3,17.6,46.9,26.4c2.5,1.4,3.4,3.5,3.4,6.3
	c0,13.2,0,26.5,0,39.7c6.9-3.1,13.7-5.1,20.3-6.2C167.1,127.3,167.1,110.6,167.2,93.9z M155.4,96.2c-14.1-7.4-28.7-13.9-41.5-23.4
	C128.7,78.8,141.8,88,155.4,96.2z M129.7,85.1c-14.1-7.4-28.7-13.9-41.5-23.4C103,67.7,116.1,76.9,129.7,85.1z M91.3,68.4
	c19,8.4,36.2,19.9,54,30.5C127.1,89.1,108.3,80.3,91.3,68.4z"/>
<path class="st4" d="M198.7,73.5c0-1.3-0.4-2-1.5-2.7C175.1,58.5,153,46.1,131,33.6c-1.4-0.8-2.6-0.9-4.1-0.7
	c-6.3,0.9-11.9,3.1-16.1,8.2c-0.7,0.9-1.2,1.9-1.9,2.9c-0.6,0.9-0.3,1.3,0.6,1.8c7.6,4.2,15.1,8.5,22.7,12.8
	c14.3,8.1,28.7,16.2,43,24.2c2.5,1.4,3.6,3.3,3.6,6.2c0,18,0,36,0,53.9c6.9-0.2,13.6,0.6,19.8,2C198.6,121,198.6,97.3,198.7,73.5z
	 M123.4,40.5c19,8.4,36.2,19.9,54,30.5C159.2,61.1,140.4,52.3,123.4,40.5z M142.3,54.8c14.8,6,27.9,15.2,41.5,23.4
	C169.7,70.8,155.1,64.4,142.3,54.8z"/>
<path class="st4" d="M133.7,112.1c-22.1-12.4-44.1-24.8-66.1-37.3c-1.8-1-3.5-0.9-5.3-0.6c-5.9,1-11.1,3.1-15.1,7.8
	c-1.1,1.3-1.7,2.8-2.6,4.2c-0.5,0.9-0.2,1.4,0.7,2c8.8,4.9,17.5,9.8,26.2,14.7c14.1,8,28.2,15.9,42.3,23.8c2.5,1.4,3.6,3.4,3.6,6.3
	c0,8.1,0,16.2,0,24.3c5.6,0.5,11.4-0.1,17.6-2.1c0-13.5,0-27.1,0-40.6C135.1,113.4,134.8,112.7,133.7,112.1z M58.7,83.7
	c19,8.4,36.2,19.9,54,30.5C94.5,104.3,75.6,95.6,58.7,83.7z M73.9,88c19,8.4,36.2,19.9,54,30.5C109.8,108.7,90.9,99.9,73.9,88z"/>
</svg>
