<?xml version="1.0" encoding="UTF-8"?><svg id="a" xmlns="http://www.w3.org/2000/svg" viewBox="0 0 249.86 249.86"><defs><style>.c{fill:#f6ef78;}.d{fill:#fff;}.e{fill:#f38271;}.f{fill:#fcb865;}.g{fill:#be5e7f;}</style></defs><g id="b"><path class="c" d="M48.07,102.03c5.98-4.23,12.76-6.25,20.01-6.85,.44-.04,1.07-.43,1.22-.82,3.57-9.19,10.54-14.72,19.48-18.11,3.67-1.39,7.5-2.05,11.4-2.39,.43-.04,1.04-.34,1.2-.69,4.47-9.67,12.34-15.14,22.3-17.86,3.09-.84,6.37-1.18,9.59-1.35,1.6-.08,3.44,.42,4.86,1.21,5.24,2.92,10.46,5.86,15.69,8.8,15.9-3.27,31.34-4.97,45.96-5.13-20.61-16.2-46.6-25.87-74.84-25.87-62.15,0-113.36,46.79-120.35,107.05,10.1-9.1,21.2-17.82,33.19-25.99,2.06-4.78,5.66-8.71,10.3-12Z"/><path class="f" d="M35.81,123.78c0-3.6,.69-6.83,1.95-9.75-11.99,8.17-23.08,16.89-33.19,25.99-.37,3.19-.62,6.41-.73,9.67,9.91-6.37,20.6-12.31,31.96-17.71,0-2.73,0-5.47,0-8.2Z"/><path class="f" d="M189.07,83.82c7.06,3.98,14.09,7.99,21.18,11.91,2.6,1.44,3.83,3.45,3.82,6.47,0,.23,0,.46,0,.69,7.87,1.18,15.46,2.73,22.72,4.62-8.03-19.24-20.87-35.96-37.03-48.67-14.62,.16-30.06,1.86-45.96,5.13,11.76,6.6,23.51,13.23,35.26,19.85Z"/><path class="e" d="M35.8,131.98c-11.36,5.4-22.05,11.34-31.96,17.71-.05,1.48-.09,2.96-.09,4.45,0,2.91,.11,5.79,.31,8.64,9.92-4.41,20.54-8.28,31.73-11.56,0-6.41,0-12.83,0-19.24Z"/><path class="e" d="M236.8,107.51c-7.26-1.89-14.85-3.45-22.72-4.62-.02,16.1-.02,32.19-.02,48.29,11.2,3.27,21.82,7.14,31.74,11.54,.2-2.83,.31-5.69,.31-8.57,0-16.53-3.31-32.28-9.31-46.64Z"/><path class="g" d="M214.05,181.25c10.11,3.82,18.59,9.18,24.68,14.61,3.83-10.45,6.26-21.58,7.07-33.15-9.92-4.4-20.54-8.27-31.74-11.54,0,10.03,0,20.05,0,30.08Z"/><path class="g" d="M4.06,162.79c.12,1.67,.27,3.33,.46,4.98,11.61-3.62,21.93-5.02,31.27-4.92,0-3.87,0-7.75,0-11.62-11.2,3.28-21.81,7.16-31.73,11.56Z"/><path class="d" d="M200.87,103.84c-22.07-12.39-44.12-24.81-66.14-37.28-1.37-.78-2.65-.9-4.12-.7-6.32,.86-11.93,3.13-16.11,8.17-.72,.87-1.23,1.91-1.86,2.85-.58,.87-.3,1.32,.58,1.81,7.57,4.22,15.11,8.5,22.66,12.76,14.34,8.08,28.67,16.18,43.03,24.24,2.47,1.38,3.62,3.33,3.61,6.18-.01,17.98-.03,35.96-.03,53.94,6.93-.16,13.57,.57,19.79,1.95,.03-23.75,.05-47.5,.09-71.25,0-1.29-.35-2-1.52-2.66Zm-73.72-30.42c18.96,8.39,36.23,19.95,54.05,30.48-18.24-9.8-37.06-18.59-54.05-30.48Zm18.84,14.37c14.77,6.02,27.86,15.23,41.5,23.41-14.06-7.44-28.71-13.88-41.5-23.41Z"/><path class="d" d="M168.81,123.37c-21.88-12.27-43.74-24.59-65.56-36.97-1.8-1.02-3.5-.85-5.3-.55-6.33,1.08-11.94,3.48-15.85,8.85-.96,1.32-1.56,2.89-2.38,4.44,7.05,3.97,13.76,7.76,20.47,11.54,15.64,8.82,31.27,17.65,46.92,26.44,2.51,1.41,3.43,3.5,3.42,6.3-.02,13.23-.02,26.45-.02,39.68,6.88-3.06,13.68-5.06,20.29-6.18,.02-16.67,.05-33.35,.09-50.02,0-1.76-.54-2.67-2.08-3.53Zm-35.36-5.31c-14.06-7.44-28.71-13.88-41.5-23.41,14.77,6.02,27.86,15.23,41.5,23.41Zm-38.43-16.68c18.96,8.39,36.23,19.95,54.05,30.48-18.23-9.8-37.06-18.59-54.05-30.48Zm22.65,4.35c14.77,6.02,27.86,15.23,41.5,23.41-14.06-7.44-28.71-13.88-41.5-23.41Z"/><path class="d" d="M137.39,145.04c-22.06-12.39-44.12-24.81-66.13-37.3-1.8-1.02-3.49-.88-5.3-.58-5.86,.98-11.14,3.13-15.06,7.79-1.05,1.25-1.73,2.82-2.57,4.24-.54,.92-.22,1.45,.69,1.95,8.75,4.89,17.49,9.82,26.22,14.74,14.11,7.95,28.22,15.92,42.35,23.84,2.52,1.41,3.64,3.4,3.64,6.3,0,8.09,0,16.18-.01,24.27,5.6,.49,11.41-.06,17.62-2.12,0-13.53,0-27.07,.02-40.6,0-1.27-.39-1.93-1.49-2.55Zm-75.01-28.42c18.96,8.39,36.23,19.95,54.05,30.48-18.23-9.8-37.06-18.59-54.05-30.48Zm15.29,4.33c18.96,8.39,36.23,19.95,54.05,30.48-18.24-9.8-37.06-18.59-54.05-30.48Z"/></g></svg>