<?xml version="1.0" encoding="UTF-8"?><svg id="a" xmlns="http://www.w3.org/2000/svg" viewBox="0 0 249.86 249.86"><defs><style>.c{fill:#f6ef78;}.d{fill:#fff;}.e{fill:#f38271;}.f{fill:#fcb865;}.g{fill:#be5e7f;}.h{fill:#2c365e;}</style></defs><g id="b"><path class="c" d="M48.07,102.03c5.98-4.23,12.76-6.25,20.01-6.85,.44-.04,1.07-.43,1.22-.82,3.57-9.19,10.54-14.72,19.48-18.11,3.67-1.39,7.5-2.05,11.4-2.39,.43-.04,1.04-.34,1.2-.69,4.47-9.67,12.34-15.14,22.3-17.86,3.09-.84,6.37-1.18,9.59-1.35,1.6-.08,3.44,.42,4.86,1.21,5.24,2.92,10.46,5.86,15.69,8.8,15.9-3.27,31.34-4.97,45.96-5.13-20.61-16.2-46.6-25.87-74.84-25.87-62.15,0-113.36,46.79-120.35,107.05,10.1-9.1,21.2-17.82,33.19-25.99,2.06-4.78,5.66-8.71,10.3-12Z"/><path class="f" d="M35.81,123.78c0-3.6,.69-6.83,1.95-9.75-11.99,8.17-23.08,16.89-33.19,25.99-.37,3.19-.62,6.41-.73,9.67,9.91-6.37,20.6-12.31,31.96-17.71,0-2.73,0-5.47,0-8.2Z"/><path class="f" d="M189.07,83.82c7.06,3.98,14.09,7.99,21.18,11.91,2.6,1.44,3.83,3.45,3.82,6.47,0,.23,0,.46,0,.69,7.87,1.18,15.46,2.73,22.72,4.62-8.03-19.24-20.87-35.96-37.03-48.67-14.62,.16-30.06,1.86-45.96,5.13,11.76,6.6,23.51,13.23,35.26,19.85Z"/><path class="e" d="M35.8,131.98c-11.36,5.4-22.05,11.34-31.96,17.71-.05,1.48-.09,2.96-.09,4.45,0,2.91,.11,5.79,.31,8.64,9.92-4.41,20.54-8.28,31.73-11.56,0-6.41,0-12.83,0-19.24Z"/><path class="e" d="M236.8,107.51c-7.26-1.89-14.85-3.45-22.72-4.62-.02,16.1-.02,32.19-.02,48.29,11.2,3.27,21.82,7.14,31.74,11.54,.2-2.83,.31-5.69,.31-8.57,0-16.53-3.31-32.28-9.31-46.64Z"/><path class="g" d="M214.05,181.25c10.11,3.82,18.59,9.18,24.68,14.61,3.83-10.45,6.26-21.58,7.07-33.15-9.92-4.4-20.54-8.27-31.74-11.54,0,10.03,0,20.05,0,30.08Z"/><path class="g" d="M4.06,162.79c.12,1.67,.27,3.33,.46,4.98,11.61-3.62,21.93-5.02,31.27-4.92,0-3.87,0-7.75,0-11.62-11.2,3.28-21.81,7.16-31.73,11.56Z"/><path class="d" d="M200.87,103.84c-22.07-12.39-44.12-24.81-66.14-37.28-1.37-.78-2.65-.9-4.12-.7-6.32,.86-11.93,3.13-16.11,8.17-.72,.87-1.23,1.91-1.86,2.85-.58,.87-.3,1.32,.58,1.81,7.57,4.22,15.11,8.5,22.66,12.76,14.34,8.08,28.67,16.18,43.03,24.24,2.47,1.38,3.62,3.33,3.61,6.18-.01,17.98-.03,35.96-.03,53.94,6.93-.16,13.57,.57,19.79,1.95,.03-23.75,.05-47.5,.09-71.25,0-1.29-.35-2-1.52-2.66Zm-73.72-30.42c18.96,8.39,36.23,19.95,54.05,30.48-18.24-9.8-37.06-18.59-54.05-30.48Zm18.84,14.37c14.77,6.02,27.86,15.23,41.5,23.41-14.06-7.44-28.71-13.88-41.5-23.41Z"/><path class="d" d="M168.81,123.37c-21.88-12.27-43.74-24.59-65.56-36.97-1.8-1.02-3.5-.85-5.3-.55-6.33,1.08-11.94,3.48-15.85,8.85-.96,1.32-1.56,2.89-2.38,4.44,7.05,3.97,13.76,7.76,20.47,11.54,15.64,8.82,31.27,17.65,46.92,26.44,2.51,1.41,3.43,3.5,3.42,6.3-.02,13.23-.02,26.45-.02,39.68,6.88-3.06,13.68-5.06,20.29-6.18,.02-16.67,.05-33.35,.09-50.02,0-1.76-.54-2.67-2.08-3.53Zm-35.36-5.31c-14.06-7.44-28.71-13.88-41.5-23.41,14.77,6.02,27.86,15.23,41.5,23.41Zm-38.43-16.68c18.96,8.39,36.23,19.95,54.05,30.48-18.23-9.8-37.06-18.59-54.05-30.48Zm22.65,4.35c14.77,6.02,27.86,15.23,41.5,23.41-14.06-7.44-28.71-13.88-41.5-23.41Z"/><path class="d" d="M137.39,145.04c-22.06-12.39-44.12-24.81-66.13-37.3-1.8-1.02-3.49-.88-5.3-.58-5.86,.98-11.14,3.13-15.06,7.79-1.05,1.25-1.73,2.82-2.57,4.24-.54,.92-.22,1.45,.69,1.95,8.75,4.89,17.49,9.82,26.22,14.74,14.11,7.95,28.22,15.92,42.35,23.84,2.52,1.41,3.64,3.4,3.64,6.3,0,8.09,0,16.18-.01,24.27,5.6,.49,11.41-.06,17.62-2.12,0-13.53,0-27.07,.02-40.6,0-1.27-.39-1.93-1.49-2.55Zm-75.01-28.42c18.96,8.39,36.23,19.95,54.05,30.48-18.23-9.8-37.06-18.59-54.05-30.48Zm15.29,4.33c18.96,8.39,36.23,19.95,54.05,30.48-18.24-9.8-37.06-18.59-54.05-30.48Z"/><path class="h" d="M214.08,102.88c0-.23,0-.46,0-.69,0-3.02-1.22-5.03-3.82-6.47-7.09-3.92-14.12-7.93-21.18-11.91-11.75-6.62-23.5-13.24-35.26-19.85-5.23-2.94-10.45-5.88-15.69-8.8-1.42-.79-3.25-1.29-4.86-1.21-3.22,.17-6.49,.5-9.59,1.35-9.96,2.72-17.83,8.19-22.3,17.86-.16,.35-.77,.65-1.2,.69-3.9,.34-7.73,1-11.4,2.39-8.94,3.39-15.91,8.92-19.48,18.11-.15,.38-.79,.78-1.22,.82-7.25,.6-14.03,2.62-20.01,6.85-4.65,3.29-8.24,7.23-10.3,12-1.26,2.92-1.95,6.15-1.95,9.75,0,2.73,0,5.47,0,8.2,0,6.41,0,12.83,0,19.24,0,3.87,0,7.75,0,11.62,37.65,.4,59.36,25.18,85.44,27.46,0-8.09,0-16.18,.01-24.27,0-2.9-1.12-4.89-3.64-6.3-14.13-7.92-28.24-15.89-42.35-23.84-8.74-4.92-17.47-9.85-26.22-14.74-.91-.51-1.23-1.04-.69-1.95,.84-1.43,1.52-2.99,2.57-4.24,3.92-4.67,9.2-6.82,15.06-7.79,1.81-.3,3.5-.44,5.3,.58,22.01,12.49,44.06,24.9,66.13,37.3,1.1,.62,1.49,1.28,1.49,2.55-.02,13.53-.02,27.07-.02,40.6,2.45-.81,4.96-1.84,7.55-3.15,1.37-.69,2.74-1.33,4.11-1.94,0-13.23,0-26.45,.02-39.68,0-2.79-.92-4.89-3.42-6.3-15.65-8.79-31.28-17.62-46.92-26.44-6.71-3.78-13.42-7.57-20.47-11.54,.82-1.55,1.42-3.12,2.38-4.44,3.9-5.37,9.52-7.78,15.85-8.85,1.8-.31,3.5-.48,5.3,.55,21.82,12.38,43.67,24.7,65.56,36.97,1.54,.86,2.08,1.77,2.08,3.53-.04,16.67-.06,33.35-.09,50.02,3.98-.68,7.88-1.04,11.7-1.13,0-17.98,.01-35.96,.03-53.94,0-2.85-1.15-4.8-3.61-6.18-14.36-8.05-28.69-16.15-43.03-24.24-7.55-4.26-15.09-8.53-22.66-12.76-.88-.49-1.16-.95-.58-1.81,.63-.95,1.14-1.99,1.86-2.85,4.19-5.04,9.79-7.31,16.11-8.17,1.47-.2,2.75-.07,4.12,.7,22.02,12.47,44.07,24.9,66.14,37.28,1.16,.65,1.52,1.36,1.52,2.66-.04,23.75-.06,47.5-.09,71.25,4.12,.91,8.05,2.1,11.76,3.5,0-10.03,0-20.05,0-30.08,0-16.1,0-32.19,.02-48.29Z"/><path class="h" d="M116.43,147.1c-17.82-10.53-35.08-22.1-54.05-30.48,16.99,11.89,35.81,20.68,54.05,30.48Z"/><path class="h" d="M131.72,151.43c-17.82-10.53-35.08-22.1-54.05-30.48,16.99,11.89,35.81,20.68,54.05,30.48Z"/><path class="h" d="M149.06,131.86c-17.82-10.53-35.08-22.1-54.05-30.48,16.99,11.89,35.81,20.68,54.05,30.48Z"/><path class="h" d="M127.15,73.42c16.99,11.89,35.81,20.68,54.05,30.48-17.82-10.53-35.08-22.1-54.05-30.48Z"/><path class="h" d="M91.94,94.65c12.79,9.53,27.44,15.96,41.5,23.41-13.64-8.18-26.73-17.39-41.5-23.41Z"/><path class="h" d="M159.17,129.14c-13.64-8.18-26.73-17.39-41.5-23.41,12.8,9.53,27.44,15.97,41.5,23.41Z"/><path class="h" d="M187.49,111.2c-13.64-8.18-26.73-17.39-41.5-23.41,12.79,9.53,27.44,15.97,41.5,23.41Z"/></g></svg>