<?xml version="1.0" encoding="utf-8"?>
<!-- Generator: Adobe Illustrator 27.6.1, SVG Export Plug-In . SVG Version: 6.00 Build 0)  -->
<svg version="1.1" id="a" xmlns="http://www.w3.org/2000/svg" xmlns:xlink="http://www.w3.org/1999/xlink" x="0px" y="0px"
	 viewBox="0 0 242.7 163" style="enable-background:new 0 0 242.7 163;" xml:space="preserve">
<style type="text/css">
	.st0{fill:#F5EE77;}
	.st1{fill:#FBB865;}
	.st2{fill:#F28171;}
	.st3{fill:#BE5E80;}
	.st4{fill:#FFFFFF;}
	.st5{fill:#2C365E;}
</style>
<path class="st0" d="M233.1,74.5c-8-19.2-20.9-36-37-48.7C175.5,9.6,149.5,0,121.2,0C59.1,0,7.9,46.8,0.9,107
	c-0.4,3.2-0.6,6.4-0.7,9.7c-0.1,1.5-0.1,3-0.1,4.5c0,2.9,0.1,5.8,0.3,8.6c0.1,1.7,0.3,3.3,0.5,5c11.6-3.6,21.9-5,31.3-4.9
	c0-3.9,0-7.7,0-11.6c0-6.4,0-12.8,0-19.2c0-2.7,0-5.5,0-8.2c0-3.6,0.7-6.8,2-9.7c2.1-4.8,5.7-8.7,10.3-12c6-4.2,12.8-6.2,20-6.9
	c0.4,0,1.1-0.4,1.2-0.8c3.6-9.2,10.5-14.7,19.5-18.1c3.7-1.4,7.5-2.1,11.4-2.4c0.4,0,1-0.3,1.2-0.7c4.5-9.7,12.3-15.1,22.3-17.9
	c3.1-0.8,6.4-1.2,9.6-1.3c1.6-0.1,3.4,0.4,4.9,1.2c5.2,2.9,10.5,5.9,15.7,8.8c11.8,6.6,23.5,13.2,35.3,19.8c7.1,4,14.1,8,21.2,11.9
	c2.6,1.4,3.8,3.4,3.8,6.5c0,0.2,0,0.5,0,0.7c0,16.1,0,32.2,0,48.3c0,10,0,20.1,0,30.1c10.1,3.8,18.6,9.2,24.7,14.6
	c3.8-10.5,6.3-21.6,7.1-33.2c0.2-2.8,0.3-5.7,0.3-8.6C242.4,104.6,239.1,88.9,233.1,74.5z"/>
<path class="st1" d="M0.1,116.7c-0.1,1.5-0.1,3-0.1,4.5c0,2.9,0.1,5.8,0.3,8.6c0.1,1.7,0.3,3.3,0.5,5c11.6-3.6,21.9-5,31.3-4.9
	c0-3.9,0-7.7,0-11.6c0-6.4,0-12.8,0-19.2c0-2.7,0-5.5,0-8.2c0-3.6,0.7-6.8,2-9.7c-12,8.2-23.1,16.9-33.2,26
	C0.5,110.2,0.3,113.4,0.1,116.7z"/>
<path class="st1" d="M233.1,74.5c-8-19.2-20.9-36-37-48.7c-14.6,0.2-30.1,1.9-46,5.1c11.8,6.6,23.5,13.2,35.3,19.8
	c7.1,4,14.1,8,21.2,11.9c2.6,1.4,3.8,3.4,3.8,6.5c0,0.2,0,0.5,0,0.7c0,16.1,0,32.2,0,48.3c0,10,0,20.1,0,30.1
	c10.1,3.8,18.6,9.2,24.7,14.6c3.8-10.5,6.3-21.6,7.1-33.2c0.2-2.8,0.3-5.7,0.3-8.6C242.4,104.6,239.1,88.9,233.1,74.5z"/>
<path class="st2" d="M233.1,74.5c-7.3-1.9-14.8-3.4-22.7-4.6c0,16.1,0,32.2,0,48.3c0,10,0,20.1,0,30.1c10.1,3.8,18.6,9.2,24.7,14.6
	c3.8-10.5,6.3-21.6,7.1-33.2c0.2-2.8,0.3-5.7,0.3-8.6C242.4,104.6,239.1,88.9,233.1,74.5z"/>
<path class="st2" d="M0.1,121.2c0,2.9,0.1,5.8,0.3,8.6c0.1,1.7,0.3,3.3,0.5,5c11.6-3.6,21.9-5,31.3-4.9c0-3.9,0-7.7,0-11.6
	c0-6.4,0-12.8,0-19.2c-11.4,5.4-22,11.3-32,17.7C0.1,118.2,0.1,119.7,0.1,121.2z"/>
<path class="st3" d="M210.4,148.3c10.1,3.8,18.6,9.2,24.7,14.6c3.8-10.5,6.3-21.6,7.1-33.2c-9.9-4.4-20.5-8.3-31.7-11.5
	C210.4,128.2,210.4,138.2,210.4,148.3z"/>
<path class="st3" d="M32.1,129.9c0-3.9,0-7.7,0-11.6c-11.2,3.3-21.8,7.2-31.7,11.6c0.1,1.7,0.3,3.3,0.5,5
	C12.4,131.2,22.8,129.8,32.1,129.9z"/>
<path class="st3" d="M210.4,148.3c10.1,3.8,18.6,9.2,24.7,14.6c3.8-10.5,6.3-21.6,7.1-33.2c-9.9-4.4-20.5-8.3-31.7-11.5
	C210.4,128.2,210.4,138.2,210.4,148.3z"/>
<path class="st3" d="M32.1,129.9c0-3.9,0-7.7,0-11.6c-11.2,3.3-21.8,7.2-31.7,11.6c0.1,1.7,0.3,3.3,0.5,5
	C12.4,131.2,22.8,129.8,32.1,129.9z"/>
<path class="st4" d="M167.2,93.9c0-1.8-0.5-2.7-2.1-3.5c-21.9-12.3-43.7-24.6-65.6-37c-1.8-1-3.5-0.9-5.3-0.5
	c-6.3,1.1-11.9,3.5-15.8,8.9c-1,1.3-1.6,2.9-2.4,4.4c7,4,13.8,7.8,20.5,11.5c15.6,8.8,31.3,17.6,46.9,26.4c2.5,1.4,3.4,3.5,3.4,6.3
	c0,13.2,0,26.5,0,39.7c6.9-3.1,13.7-5.1,20.3-6.2C167.1,127.3,167.1,110.6,167.2,93.9z M155.5,96.1c-14.1-7.4-28.7-13.9-41.5-23.4
	C128.7,78.8,141.8,88,155.5,96.1z M129.7,85.1c-14.1-7.4-28.7-13.9-41.5-23.4C103,67.7,116.1,76.9,129.7,85.1z M91.3,68.4
	c19,8.4,36.2,19.9,54,30.5C127.1,89.1,108.3,80.3,91.3,68.4z"/>
<path class="st4" d="M198.7,73.5c0-1.3-0.4-2-1.5-2.7c-22.1-12.4-44.1-24.8-66.1-37.3c-1.4-0.8-2.6-0.9-4.1-0.7
	c-6.3,0.9-11.9,3.1-16.1,8.2c-0.7,0.9-1.2,1.9-1.9,2.9c-0.6,0.9-0.3,1.3,0.6,1.8c7.6,4.2,15.1,8.5,22.7,12.8
	c14.3,8.1,28.7,16.2,43,24.2c2.5,1.4,3.6,3.3,3.6,6.2c0,18,0,36,0,53.9c6.9-0.2,13.6,0.6,19.8,2C198.6,121,198.6,97.3,198.7,73.5z
	 M123.5,40.4c19,8.4,36.2,19.9,54,30.5C159.3,61.1,140.4,52.3,123.5,40.4z M142.3,54.8c14.8,6,27.9,15.2,41.5,23.4
	C169.7,70.8,155.1,64.3,142.3,54.8z"/>
<path class="st4" d="M133.7,112c-22.1-12.4-44.1-24.8-66.1-37.3c-1.8-1-3.5-0.9-5.3-0.6c-5.9,1-11.1,3.1-15.1,7.8
	c-1.1,1.3-1.7,2.8-2.6,4.2c-0.5,0.9-0.2,1.4,0.7,2c8.8,4.9,17.5,9.8,26.2,14.7c14.1,8,28.2,15.9,42.3,23.8c2.5,1.4,3.6,3.4,3.6,6.3
	c0,8.1,0,16.2,0,24.3c5.6,0.5,11.4-0.1,17.6-2.1c0-13.5,0-27.1,0-40.6C135.2,113.3,134.8,112.7,133.7,112z M58.7,83.6
	c19,8.4,36.2,19.9,54,30.5C94.5,104.3,75.7,95.5,58.7,83.6z M74,88c19,8.4,36.2,19.9,54,30.5C109.8,108.6,91,99.9,74,88z"/>
<path class="st5" d="M210.4,69.9c0-0.2,0-0.5,0-0.7c0-3-1.2-5-3.8-6.5c-7.1-3.9-14.1-7.9-21.2-11.9c-11.8-6.6-23.5-13.2-35.3-19.8
	c-5.2-2.9-10.5-5.9-15.7-8.8c-1.4-0.8-3.3-1.3-4.9-1.2c-3.2,0.2-6.5,0.5-9.6,1.3c-10,2.7-17.8,8.2-22.3,17.9
	c-0.2,0.3-0.8,0.6-1.2,0.7c-3.9,0.3-7.7,1-11.4,2.4c-8.9,3.4-15.9,8.9-19.5,18.1c-0.1,0.4-0.8,0.8-1.2,0.8c-7.3,0.6-14,2.6-20,6.9
	c-4.6,3.3-8.2,7.2-10.3,12c-1.3,2.9-2,6.2-2,9.7c0,2.7,0,5.5,0,8.2c0,6.4,0,12.8,0,19.2c0,3.9,0,7.7,0,11.6
	c37.7,0.4,59.4,25.2,85.4,27.5c0-8.1,0-16.2,0-24.3c0-2.9-1.1-4.9-3.6-6.3c-14.1-7.9-28.2-15.9-42.3-23.8C62.8,98,54,93,45.3,88.2
	c-0.9-0.5-1.2-1-0.7-2c0.8-1.4,1.5-3,2.6-4.2c3.9-4.7,9.2-6.8,15.1-7.8c1.8-0.3,3.5-0.4,5.3,0.6c22,12.5,44.1,24.9,66.1,37.3
	c1.1,0.6,1.5,1.3,1.5,2.5c0,13.5,0,27.1,0,40.6c2.4-0.8,5-1.8,7.5-3.1c1.4-0.7,2.7-1.3,4.1-1.9c0-13.2,0-26.5,0-39.7
	c0-2.8-0.9-4.9-3.4-6.3c-15.6-8.8-31.3-17.6-46.9-26.4C89.8,74,83.1,70.2,76,66.3c0.8-1.6,1.4-3.1,2.4-4.4c3.9-5.4,9.5-7.8,15.8-8.9
	c1.8-0.3,3.5-0.5,5.3,0.5c21.8,12.4,43.7,24.7,65.6,37c1.5,0.9,2.1,1.8,2.1,3.5c0,16.7-0.1,33.3-0.1,50c4-0.7,7.9-1,11.7-1.1
	c0-18,0-36,0-53.9c0-2.9-1.1-4.8-3.6-6.2c-14.4-8.1-28.7-16.2-43-24.2c-7.6-4.3-15.1-8.5-22.7-12.8c-0.9-0.5-1.2-0.9-0.6-1.8
	s1.1-2,1.9-2.9c4.2-5,9.8-7.3,16.1-8.2c1.5-0.2,2.7-0.1,4.1,0.7c22,12.5,44.1,24.9,66.1,37.3c1.2,0.7,1.5,1.4,1.5,2.7
	c0,23.8-0.1,47.5-0.1,71.3c4.1,0.9,8,2.1,11.8,3.5c0-10,0-20.1,0-30.1C210.4,102.1,210.4,86,210.4,69.9z"/>
<path class="st5" d="M58.7,83.6c17,11.9,35.8,20.7,54,30.5C94.9,103.6,77.7,92,58.7,83.6z"/>
<path class="st5" d="M74,88c17,11.9,35.8,20.7,54,30.5C110.2,107.9,92.9,96.3,74,88z"/>
<path class="st5" d="M91.3,68.4c17,11.9,35.8,20.7,54,30.5C127.5,88.3,110.3,76.8,91.3,68.4z"/>
<path class="st5" d="M177.5,70.9c-17.8-10.5-35.1-22.1-54-30.5C140.4,52.3,159.3,61.1,177.5,70.9z"/>
<path class="st5" d="M129.7,85.1c-13.6-8.2-26.7-17.4-41.5-23.4C101,71.2,115.7,77.6,129.7,85.1z"/>
<path class="st5" d="M114,72.7c12.8,9.5,27.4,16,41.5,23.4C141.8,88,128.7,78.8,114,72.7z"/>
<path class="st5" d="M142.3,54.8c12.8,9.5,27.4,16,41.5,23.4C170.2,70,157.1,60.8,142.3,54.8z"/>
</svg>
