<?xml version="1.0" encoding="utf-8"?>
<!-- Generator: Adobe Illustrator 27.6.1, SVG Export Plug-In . SVG Version: 6.00 Build 0)  -->
<svg version="1.1" id="a" xmlns="http://www.w3.org/2000/svg" xmlns:xlink="http://www.w3.org/1999/xlink" x="0px" y="0px"
	 viewBox="0 0 242.4 162.9" style="enable-background:new 0 0 242.4 162.9;" xml:space="preserve">
<style type="text/css">
	.st0{fill:#F6EF78;}
	.st1{fill:#FCB865;}
	.st2{fill:#F38271;}
	.st3{fill:#BE5E7F;}
	.st4{fill:#FFFFFF;}
</style>
<g id="b">
	<path class="st0" d="M44.3,69.1c6-4.2,12.8-6.2,20-6.8c0.4,0,1.1-0.4,1.2-0.8c3.6-9.2,10.5-14.7,19.5-18.1
		c3.7-1.4,7.5-2.1,11.4-2.4c0.4,0,1-0.3,1.2-0.7c4.5-9.7,12.3-15.1,22.3-17.9c3.1-0.8,6.4-1.2,9.6-1.3c1.6-0.1,3.4,0.4,4.9,1.2
		c5.2,2.9,10.5,5.9,15.7,8.8c15.9-3.3,31.3-5,46-5.1C175.4,9.7,149.4,0,121.2,0C59,0,7.8,46.8,0.8,107C10.9,97.9,22,89.2,34,81.1
		C36.1,76.3,39.7,72.3,44.3,69.1L44.3,69.1z"/>
	<path class="st1" d="M32.1,90.8c0-3.6,0.7-6.8,2-9.8c-12,8.2-23.1,16.9-33.2,26c-0.4,3.2-0.6,6.4-0.7,9.7
		c9.9-6.4,20.6-12.3,32-17.7C32.1,96.3,32.1,93.5,32.1,90.8L32.1,90.8z"/>
	<path class="st1" d="M185.3,50.9c7.1,4,14.1,8,21.2,11.9c2.6,1.4,3.8,3.4,3.8,6.5c0,0.2,0,0.5,0,0.7c7.9,1.2,15.5,2.7,22.7,4.6
		c-8-19.2-20.9-36-37-48.7c-14.6,0.2-30.1,1.9-46,5.1C161.8,37.6,173.6,44.2,185.3,50.9L185.3,50.9z"/>
	<path class="st2" d="M32,99c-11.4,5.4-22,11.3-32,17.7c0,1.5-0.1,3-0.1,4.4c0,2.9,0.1,5.8,0.3,8.6c9.9-4.4,20.5-8.3,31.7-11.6
		C32,111.8,32,105.4,32,99L32,99z"/>
	<path class="st2" d="M233.1,74.5c-7.3-1.9-14.9-3.4-22.7-4.6c0,16.1,0,32.2,0,48.3c11.2,3.3,21.8,7.1,31.7,11.5
		c0.2-2.8,0.3-5.7,0.3-8.6C242.4,104.7,239.1,88.9,233.1,74.5z"/>
	<path class="st3" d="M210.3,148.3c10.1,3.8,18.6,9.2,24.7,14.6c3.8-10.5,6.3-21.6,7.1-33.2c-9.9-4.4-20.5-8.3-31.7-11.5
		C210.3,128.2,210.3,138.2,210.3,148.3L210.3,148.3z"/>
	<path class="st3" d="M0.3,129.8c0.1,1.7,0.3,3.3,0.5,5c11.6-3.6,21.9-5,31.3-4.9c0-3.9,0-7.8,0-11.6
		C20.8,121.5,10.2,125.4,0.3,129.8z"/>
	<path class="st4" d="M197.1,70.9C175,58.5,153,46.1,131,33.6c-1.4-0.8-2.6-0.9-4.1-0.7c-6.3,0.9-11.9,3.1-16.1,8.2
		c-0.7,0.9-1.2,1.9-1.9,2.8c-0.6,0.9-0.3,1.3,0.6,1.8c7.6,4.2,15.1,8.5,22.7,12.8c14.3,8.1,28.7,16.2,43,24.2
		c2.5,1.4,3.6,3.3,3.6,6.2c0,18,0,36,0,53.9c6.9-0.2,13.6,0.6,19.8,2c0-23.8,0.1-47.5,0.1-71.3C198.6,72.2,198.3,71.5,197.1,70.9
		L197.1,70.9z M123.4,40.5c19,8.4,36.2,19.9,54.1,30.5C159.2,61.1,140.4,52.3,123.4,40.5z M142.2,54.8c14.8,6,27.9,15.2,41.5,23.4
		C169.7,70.8,155,64.4,142.2,54.8z"/>
	<path class="st4" d="M165.1,90.4c-21.9-12.3-43.7-24.6-65.6-37c-1.8-1-3.5-0.8-5.3-0.6c-6.3,1.1-11.9,3.5-15.8,8.8
		c-1,1.3-1.6,2.9-2.4,4.4c7.1,4,13.8,7.8,20.5,11.5c15.6,8.8,31.3,17.7,46.9,26.4c2.5,1.4,3.4,3.5,3.4,6.3c0,13.2,0,26.4,0,39.7
		c6.9-3.1,13.7-5.1,20.3-6.2c0-16.7,0.1-33.3,0.1-50C167.1,92.2,166.6,91.3,165.1,90.4L165.1,90.4z M129.7,85.1
		c-14.1-7.4-28.7-13.9-41.5-23.4C103,67.7,116.1,76.9,129.7,85.1z M91.3,68.4c19,8.4,36.2,19.9,54,30.5
		C127.1,89.1,108.3,80.3,91.3,68.4z M113.9,72.8c14.8,6,27.9,15.2,41.5,23.4C141.4,88.7,126.7,82.3,113.9,72.8z"/>
	<path class="st4" d="M133.6,112.1c-22.1-12.4-44.1-24.8-66.1-37.3c-1.8-1-3.5-0.9-5.3-0.6c-5.9,1-11.1,3.1-15.1,7.8
		c-1,1.2-1.7,2.8-2.6,4.2c-0.5,0.9-0.2,1.4,0.7,1.9c8.8,4.9,17.5,9.8,26.2,14.7c14.1,7.9,28.2,15.9,42.3,23.8
		c2.5,1.4,3.6,3.4,3.6,6.3c0,8.1,0,16.2,0,24.3c5.6,0.5,11.4-0.1,17.6-2.1c0-13.5,0-27.1,0-40.6
		C135.1,113.3,134.7,112.7,133.6,112.1L133.6,112.1z M58.6,83.7c19,8.4,36.2,19.9,54,30.5C94.4,104.3,75.6,95.5,58.6,83.7z M73.9,88
		c19,8.4,36.2,19.9,54.1,30.5C109.7,108.7,90.9,99.9,73.9,88z"/>
</g>
</svg>
