<?xml version="1.0" encoding="UTF-8"?>
<svg xmlns="http://www.w3.org/2000/svg" viewBox="0 0 417.99 314.01">
  <path class="icon-quinary fill-quinary cls-2" d="m344.47,74.54c-8.03-19.24-20.87-35.96-37.03-48.67C286.83,9.67,260.84,0,232.6,0,170.45,0,119.24,46.79,112.24,107.06c-.37,3.19-.62,6.41-.73,9.67-.05,1.48-.09,2.96-.09,4.45,0,2.91.11,5.79.31,8.64.12,1.67.27,3.33.46,4.98,11.61-3.62,21.93-5.02,31.27-4.92,0-3.87,0-7.75,0-11.62,0-6.41,0-12.83,0-19.24,0-2.73,0-5.47,0-8.2,0-3.6.69-6.83,1.95-9.75,2.06-4.78,5.66-8.71,10.3-12,5.98-4.23,12.76-6.25,20.01-6.85.44-.04,1.07-.43,1.22-.82,3.57-9.19,10.54-14.72,19.48-18.11,3.67-1.39,7.5-2.05,11.4-2.39.43-.04,1.04-.34,1.2-.69,4.47-9.67,12.34-15.14,22.3-17.86,3.09-.84,6.37-1.18,9.59-1.35,1.6-.08,3.44.42,4.86,1.21,5.24,2.92,10.46,5.86,15.69,8.8,11.76,6.6,23.51,13.23,35.26,19.85,7.06,3.98,14.09,7.99,21.18,11.91,2.6,1.44,3.83,3.45,3.82,6.47,0,.23,0,.46,0,.69-.02,16.1-.02,32.19-.02,48.29,0,10.03,0,20.05,0,30.08,10.11,3.82,18.59,9.18,24.68,14.61,3.83-10.45,6.26-21.58,7.07-33.15.2-2.83.31-5.69.31-8.57,0-16.53-3.31-32.28-9.31-46.64Z"/>
  <g class="icon-quaternary fill-quaternary">
    <path class="cls-4" d="m111.51,116.73c-.05,1.48-.09,2.96-.09,4.45,0,2.91.11,5.79.31,8.64.12,1.67.27,3.33.46,4.98,11.61-3.62,21.93-5.02,31.27-4.92,0-3.87,0-7.75,0-11.62,0-6.41,0-12.83,0-19.24,0-2.73,0-5.47,0-8.2,0-3.6.69-6.83,1.95-9.75-11.99,8.17-23.08,16.89-33.19,25.99-.37,3.19-.62,6.41-.73,9.67Z"/>
    <path class="cls-4" d="m344.47,74.54c-8.03-19.24-20.87-35.96-37.03-48.67-14.62.16-30.06,1.86-45.96,5.13,11.76,6.6,23.51,13.23,35.26,19.85,7.06,3.98,14.09,7.99,21.18,11.91,2.6,1.44,3.83,3.45,3.82,6.47,0,.23,0,.46,0,.69-.02,16.1-.02,32.19-.02,48.29,0,10.03,0,20.05,0,30.08,10.11,3.82,18.59,9.18,24.68,14.61,3.83-10.45,6.26-21.58,7.07-33.15.2-2.83.31-5.69.31-8.57,0-16.53-3.31-32.28-9.31-46.64Z"/>
  </g>
  <g class="icon-tertiary fill-tertiary">
    <path class="cls-1" d="m344.47,74.54c-7.26-1.89-14.85-3.45-22.72-4.62-.02,16.1-.02,32.19-.02,48.29,0,10.03,0,20.05,0,30.08,10.11,3.82,18.59,9.18,24.68,14.61,3.83-10.45,6.26-21.58,7.07-33.15.2-2.83.31-5.69.31-8.57,0-16.53-3.31-32.28-9.31-46.64Z"/>
    <path class="cls-1" d="m111.42,121.18c0,2.91.11,5.79.31,8.64.12,1.67.27,3.33.46,4.98,11.61-3.62,21.93-5.02,31.27-4.92,0-3.87,0-7.75,0-11.62,0-6.41,0-12.83,0-19.24-11.36,5.4-22.05,11.34-31.96,17.71-.05,1.48-.09,2.96-.09,4.45Z"/>
  </g>
  <g class="icon-secondary fill-secondary">
    <path class="cls-6" d="m321.72,148.29c10.11,3.82,18.59,9.18,24.68,14.61,3.83-10.45,6.26-21.58,7.07-33.15-9.92-4.4-20.54-8.27-31.74-11.54,0,10.03,0,20.05,0,30.08Z"/>
    <path class="cls-6" d="m143.46,129.88c0-3.87,0-7.75,0-11.62-11.2,3.28-21.81,7.16-31.73,11.56.12,1.67.27,3.33.46,4.98,11.61-3.62,21.93-5.02,31.27-4.92Z"/>
  </g>
  <g class="icon-primary fill-primary">
    <path class="cls-7" d="m321.75,69.92c0-.23,0-.46,0-.69,0-3.02-1.22-5.03-3.82-6.47-7.09-3.92-14.12-7.93-21.18-11.91-11.75-6.62-23.5-13.24-35.26-19.85-5.23-2.94-10.45-5.88-15.69-8.8-1.42-.79-3.25-1.29-4.86-1.21-3.22.17-6.49.5-9.59,1.35-9.96,2.72-17.83,8.19-22.3,17.86-.16.35-.77.65-1.2.69-3.9.34-7.73,1-11.4,2.39-8.94,3.39-15.91,8.92-19.48,18.11-.15.38-.79.78-1.22.82-7.25.6-14.03,2.62-20.01,6.85-4.65,3.29-8.24,7.23-10.3,12-1.26,2.92-1.95,6.15-1.95,9.75,0,2.73,0,5.47,0,8.2,0,6.41,0,12.83,0,19.24,0,3.87,0,7.75,0,11.62,37.65.4,59.36,25.18,85.44,27.46,0-8.09,0-16.18.01-24.27,0-2.9-1.12-4.89-3.64-6.3-14.13-7.92-28.24-15.89-42.35-23.84-8.74-4.92-17.47-9.85-26.22-14.74-.91-.51-1.23-1.04-.69-1.95.84-1.43,1.52-2.99,2.57-4.24,3.92-4.67,9.2-6.82,15.06-7.79,1.81-.3,3.5-.44,5.3.58,22.01,12.49,44.06,24.9,66.13,37.3,1.1.62,1.49,1.28,1.49,2.55-.02,13.53-.02,27.07-.02,40.6,2.45-.81,4.96-1.84,7.55-3.15,1.37-.69,2.74-1.33,4.11-1.94,0-13.23,0-26.45.02-39.68,0-2.79-.92-4.89-3.42-6.3-15.65-8.79-31.28-17.62-46.92-26.44-6.71-3.78-13.42-7.57-20.47-11.54.82-1.55,1.42-3.12,2.38-4.44,3.9-5.37,9.52-7.78,15.85-8.85,1.8-.31,3.5-.48,5.3.55,21.82,12.38,43.67,24.7,65.56,36.97,1.54.86,2.08,1.77,2.08,3.53-.04,16.67-.06,33.35-.09,50.02,3.98-.68,7.88-1.04,11.7-1.13,0-17.98.01-35.96.03-53.94,0-2.85-1.15-4.8-3.61-6.18-14.36-8.05-28.69-16.15-43.03-24.24-7.55-4.26-15.09-8.53-22.66-12.76-.88-.49-1.16-.95-.58-1.81.63-.95,1.14-1.99,1.86-2.85,4.19-5.04,9.79-7.31,16.11-8.17,1.47-.2,2.75-.07,4.12.7,22.02,12.47,44.07,24.9,66.14,37.28,1.16.65,1.52,1.36,1.52,2.66-.04,23.75-.06,47.5-.09,71.25,4.12.91,8.05,2.1,11.76,3.5,0-10.03,0-20.05,0-30.08,0-16.1,0-32.19.02-48.29Z"/>
    <path class="cls-7" d="m170.05,83.66c16.99,11.89,35.81,20.68,54.05,30.48-17.82-10.53-35.08-22.1-54.05-30.48Z"/>
    <path class="cls-7" d="m185.34,87.99c16.99,11.89,35.81,20.68,54.05,30.48-17.82-10.53-35.08-22.1-54.05-30.48Z"/>
    <path class="cls-7" d="m202.68,68.42c16.99,11.89,35.81,20.68,54.05,30.48-17.82-10.53-35.08-22.1-54.05-30.48Z"/>
    <path class="cls-7" d="m288.87,70.94c-17.82-10.53-35.08-22.1-54.05-30.48,16.99,11.89,35.81,20.68,54.05,30.48Z"/>
    <path class="cls-7" d="m241.11,85.1c-13.64-8.18-26.73-17.39-41.5-23.41,12.79,9.53,27.44,15.96,41.5,23.41Z"/>
    <path class="cls-7" d="m225.34,72.77c12.8,9.53,27.44,15.97,41.5,23.41-13.64-8.18-26.73-17.39-41.5-23.41Z"/>
    <path class="cls-7" d="m253.66,54.83c12.79,9.53,27.44,15.97,41.5,23.41-13.64-8.18-26.73-17.39-41.5-23.41Z"/>
  </g>
  <g class="icon-white fill-white">
    <path class="cls-3" d="m278.56,93.94c0-1.76-.54-2.67-2.08-3.53-21.88-12.27-43.74-24.59-65.56-36.97-1.8-1.02-3.5-.85-5.3-.55-6.33,1.08-11.94,3.48-15.85,8.85-.96,1.32-1.56,2.89-2.38,4.44,7.05,3.97,13.76,7.76,20.47,11.54,15.64,8.82,31.27,17.65,46.92,26.44,2.51,1.41,3.43,3.5,3.42,6.3-.02,13.23-.02,26.45-.02,39.68,6.88-3.06,13.68-5.06,20.29-6.18.02-16.67.05-33.35.09-50.02Zm-11.72,2.24c-14.06-7.44-28.71-13.88-41.5-23.41,14.77,6.02,27.86,15.23,41.5,23.41Zm-25.73-11.08c-14.06-7.44-28.71-13.88-41.5-23.41,14.77,6.02,27.86,15.23,41.5,23.41Zm-38.43-16.68c18.96,8.39,36.23,19.95,54.05,30.48-18.23-9.8-37.06-18.59-54.05-30.48Z"/>
    <path class="cls-3" d="m310.05,73.53c0-1.29-.35-2-1.52-2.66-22.07-12.39-44.12-24.81-66.14-37.28-1.37-.78-2.65-.9-4.12-.7-6.32.86-11.93,3.13-16.11,8.17-.72.87-1.23,1.91-1.86,2.85-.58.87-.3,1.32.58,1.81,7.57,4.22,15.11,8.5,22.66,12.76,14.34,8.08,28.67,16.18,43.03,24.24,2.47,1.38,3.62,3.33,3.61,6.18-.01,17.98-.03,35.96-.03,53.94,6.93-.16,13.57.57,19.79,1.95.03-23.75.05-47.5.09-71.25Zm-75.23-33.08c18.96,8.39,36.23,19.95,54.05,30.48-18.24-9.8-37.06-18.59-54.05-30.48Zm18.84,14.37c14.77,6.02,27.86,15.23,41.5,23.41-14.06-7.44-28.71-13.88-41.5-23.41Z"/>
    <path class="cls-3" d="m245.06,112.08c-22.06-12.39-44.12-24.81-66.13-37.3-1.8-1.02-3.49-.88-5.3-.58-5.86.98-11.14,3.13-15.06,7.79-1.05,1.25-1.73,2.82-2.57,4.24-.54.92-.22,1.45.69,1.95,8.75,4.89,17.49,9.82,26.22,14.74,14.11,7.95,28.22,15.92,42.35,23.84,2.52,1.41,3.64,3.4,3.64,6.3,0,8.09,0,16.18-.01,24.27,5.6.49,11.41-.06,17.62-2.12,0-13.53,0-27.07.02-40.6,0-1.27-.39-1.93-1.49-2.55Zm-75.01-28.42c18.96,8.39,36.23,19.95,54.05,30.48-18.23-9.8-37.06-18.59-54.05-30.48Zm15.29,4.33c18.96,8.39,36.23,19.95,54.05,30.48-18.24-9.8-37.06-18.59-54.05-30.48Z"/>
  </g>
  <g class="wordmark-secondary fill-secondary">
    <path class="cls-5" d="m359.06,222.65s-14.99-6.59-16.12-15.24c-1.13-8.66,7.21-10.08,10.41-5.57,0,0,6.48-5.52,9.17.88,2.87,6.81-3.81,9.62-3.46,19.93h0Z"/>
    <path class="cls-5" d="m285.59,270.47c-2.44-1.65-4.4-4.27-5.91-7.9-.87-2.4-1.41-7.1-1.62-14.11.55-2.52.57-4.46.07-5.84-.62-1.71-1.7-2.29-3.25-1.73-1.36.49-2.05,1.41-2.04,2.77-.02,2.13-.24,3.92-.69,5.34-1.84,5.9-6.17,13.49-13,22.74-2.88,3.86-4.99,6.04-6.36,6.53-1.12.41-1.92-.08-2.42-1.45-.18-.52-.29-.96-.34-1.34-.29-1.34-.28-3.03.06-5.05.35-2.01.94-4.39,1.79-7.12.92-2.85,1.98-5.51,3.22-8s2.62-4.68,4.17-6.6c1.92-2.44,3.53-3.89,4.81-4.36,1.29-.46,2.93-.34,4.94.39.32.08.62.09.88.04.28-.05.55-.12.81-.22.68-.24.88-.81.56-1.66-.94-2.57-3.24-3.18-6.94-1.86-.86.32-1.68.71-2.47,1.19-.8.49-1.6,1.07-2.43,1.75-2.09,1.73-4.07,4.07-5.96,7.04-1.9,2.97-3.5,6.16-4.83,9.6-1.32,3.44-2.28,6.75-2.88,9.92s-.62,5.92-.07,8.25c.3,1.64,1.28,3.1,2.97,4.38,1.66,1.29,3.28,1.65,4.82,1.09,2.66-.95,4.55-2.57,5.68-4.82,2.84-4.72,5.3-8.73,7.35-12.04,2.05-3.31,3.71-5.88,4.99-7.71.96-.82,1.73-.47,2.28,1.08l.13.38.86,2.75c.22.61.36,1.15.46,1.66.08.5.18.93.31,1.27,1.75,4.6,4.23,7.68,7.42,9.24.46.23.9.26,1.34.1.69-.24,1.27-.91,1.74-2s.58-2.04.29-2.81c-.15-.42-.4-.73-.75-.88h0Z"/>
    <path class="cls-5" d="m254.66,172.83c-8.7-5.31-20.03-3.36-28.16,2.57h2.59c7.4-5.2,17.4-7,25.57-2.57Z"/>
    <path class="cls-5" d="m220.76,207.57c-1.92-6.09-2.05-13.44-.85-19.29v-6.12c-.3.45-.59.9-.86,1.36-3.79,9.06-3.58,19.4-.32,28.57.18-.51.36-1.02.56-1.5.46-1.09.96-2.08,1.48-3v-.02Z"/>
    <path class="cls-5" d="m238.66,204.58c-.15-.17-.22-.39-.46-.51-3.04-1.99-5.99-2.51-8.85-1.58-3.29,1.07-5.97,4.05-8.03,8.94-2.38,5.95-3.75,13.26-4.11,21.9-.23,4.01-.17,7.85.16,11.53s.84,7.18,1.54,10.5l1.37,6.88c-1.77,2.21-4.38,4.4-7.79,6.56-4.63,2.84-7.51,4.79-8.61,5.82l.09-.16c-.95.88-1.24,1.93-.84,3.15.35,1.04.95,1.42,1.81,1.14.2.03.34,0,.41-.07s.16-.12.24-.16c3.95-2.25,6.99-3.94,9.05-5.1,2.07-1.15,3.29-1.79,3.63-1.9,1.39-.45,2.5-.13,3.32.94.62,3.06,1.18,5.76,1.7,8.09.5,2.32.92,4.26,1.23,5.78-.94.11-1.41.83-1.46,2.18,0,4.71.45,8.78,1.39,12.22.22.69.71,1.54,1.47,2.54s1.6,1.84,2.54,2.49c.94.66,1.7.88,2.31.68.52-.16.88-.67,1.1-1.51.88-3.45-.64-15.66-4.58-36.62,2.22-2.64,5.11-4.68,8.66-6.13l10.14-3.29c1.39-.45,1.84-1.41,1.37-2.89-.55-1.65-2.12-2.09-4.75-1.34l-8.25,2.97c-3.04.99-5.94,1.5-8.71,1.53l-.87-3.6-.59-2.25c-1.22-6.12-1.96-11.76-2.19-16.91-.23-5.16-.06-9.74.55-13.79,1.55-9.99,4.27-15.61,8.18-16.89,1.63-.53,3.43-.2,5.35,1,.02.02.05,0,.08,0,1.08.78,1.87,1.58,2.43,2.36,2.59,3.65,0,7.15-4,8.87v3.13c6.5-2.13,10.61-8.18,6.41-13.98-.63-.86-1.44-1.72-2.45-2.56v.03Z"/>
    <path class="cls-5" d="m355.78,227.2c-.91.05-1.53.54-1.84,1.47-1.33,4.27-2.32,8.03-3.03,11.25-.69,3.25-1.08,5.91-1.15,8.01,0,.44,0,.87.02,1.28.05,1.5-1.41,4.02-2.62,4.28-.16.02-.31.05-.49.07-1.22-.02-2.01,0-2.37.08-1.25.27-3.02-2.34-5.3-7.82-2.58-6.45-4.94-9.44-7.09-8.98-1.25.26-4.4,3.41-9.46,9.42-1.18,1.46-2.17,2.64-2.95,3.55-.79.93-1.38,1.56-1.76,1.92-.76.82-1.4,1.28-1.94,1.4-.9.19-1.6-.26-2.11-1.37-.78-1.88-1.46-3.4-2.02-4.53s-.99-1.92-1.26-2.31c-1.3-2.16-2.8-3.04-4.48-2.69-3.75.8-6.7,4.04-8.86,9.71-.23.62-.54.95-.88,1.03-.72.16-1.17-.22-1.36-1.11l-.05-.27c-.09-.82-.34-2.23-.76-4.24-.43-2.01-.99-4.62-1.66-7.83-.24-1.16-.86-1.63-1.85-1.43-1.08.23-1.56,1-1.47,2.28.15,1.18.29,2.97.43,5.36.13,2.39.34,5.33.62,8.82.41,5.42.96,10.01,1.67,13.77.36,1.7,1.38,2.37,3.09,2.01.61-.14,1.1-.48,1.46-1.02.3.12.55-.29.71-1.27.22-2.47.47-4.57.75-6.31.29-1.73.63-3.16,1.05-4.27,1.52-4.25,3.75-6.68,6.69-7.3,1.16-.25,3.28,2.71,6.36,8.85.46.83,1.66,1.04,3.63.62.98-.2,1.6-.57,1.86-1.08.98-1.6,2.31-3.39,4.05-5.34,1.73-1.95,3.49-3.73,5.3-5.33,1.81-1.59,3.25-2.51,4.32-2.72.79-.17,1.86,1.09,3.17,3.79,1.92,3.7,3.27,6.11,4.07,7.24,1.92,2.49,3.92,3.51,5.97,3.07,2.19-.18,3.94-.74,5.24-1.66.64-.44.99-.87,1.36-1.31.03.07.03.18.06.25.31.7.88,1.04,1.7,1,.91-.05,1.76-.48,2.54-1.31.78-.81,1.01-1.66.68-2.56-.1-.18-.26-2.5-.5-6.96-.07-1.27-.02-2.74.17-4.4.18-1.66.44-3.54.8-5.66.2-1.2.41-2.39.62-3.59s.47-2.4.76-3.61c.47-1.58-.16-2.31-1.9-2.23v-.02Z"/>
    <path class="cls-5" d="m416.16,232.09c-.72-.1-1.36.23-1.92.98l-1.41,2.3-4.34,6.59-1.84,2.37c-.8,1.1-1.72,2.17-2.78,3.22-1.07,1.06-2.21,2.1-3.45,3.12-3.25,2.88-5.77,4.2-7.58,3.94-2.25-.3-3.04-3.08-2.32-8.32.31-2.34,1.31-5.66,2.99-9.94,1.28-3.32,2.03-5.84,2.27-7.56.29-2.25-.44-3.52-2.25-3.75-.81-.11-1.5.21-2.06.96-2.54,4.34-4.45,10.71-5.72,19.08v-.03c-.56,3.22-1.67,4.04-3.07,6.22l-4.09,6.35c-1.97,2.42-3.9,3.62-5.81,3.58-2.02-.04-3.47-2.76-4.37-8.16-.47-3.48-.68-6.86-.62-10.14.03-1.82.14-3.73.31-5.74.18-1.99.38-4.05.61-6.14,1.21-1.62,2.26-3.02,3.16-4.18.89-1.17,1.66-2.12,2.31-2.83,9.88-15.22,15.36-27.25,16.45-36.08.33-2.73.11-5.79-.63-9.18-1.01-4.49-2.74-6.76-5.21-6.81-6.29-.12-11.86,10.07-16.74,30.6-1.89,7.71-3.32,14.77-4.31,21.18-1.01,6.42-1.54,12.22-1.65,17.42-.18,9.12.57,15.97,2.26,20.57s4.08,6.88,7.19,6.85c3.1.06,6.1-2.07,9.02-6.39.66-.9,1.39-2.14,2.19-3.72.72-1.42,1.56-3.15,2.47-5.1.33,4.47,2.05,7.01,5.28,7.45,2.09.28,4.52-.4,7.32-2.05,1.01-.61,1.93-1.21,2.81-1.83.87-.62,1.7-1.24,2.52-1.87-.5,1.68-.95,3.61-1.33,5.77-.39,2.15-.71,4.54-.97,7.18-.72.55-1.32.88-1.79,1.01-23.16,11.31-35.49,22.58-37,33.79-.89,6.59,1.55,10.28,7.33,11.06,6.42.87,12.8-2.08,19.15-8.87,5.06-5.57,9.29-12.64,12.66-21.2.57-1.5,1.2-3.35,1.86-5.56.66-2.2,1.38-4.78,2.15-7.71,3.84-.5,6.8-.93,8.87-1.29.84-.07,1.31-.51,1.41-1.32.2-1.46-.32-2.26-1.6-2.43l-7.65,1.46c1.63-7.42,3.38-13.67,5.22-18.76,1.85-5.09,3.74-9.07,5.69-11.93l.11-.82.33-.36c.22-.35.34-.61.37-.79.17-1.26-.42-1.99-1.78-2.17l-.02-.02Zm-31.66-53.31c.62.36,1.19,1.79,1.69,4.27.16,1.01.29,1.91.36,2.67.08.79.11,1.49.1,2.13-.17,8.57-5.46,19.96-15.87,34.16-.56.81-.98,1.35-1.27,1.63,3.63-27.3,8.64-42.26,14.98-44.86h0Zm11.5,103.45c-1.1,3.36-2.52,6.61-4.29,9.77-1.75,3.17-3.85,6.2-6.27,9.09-5.58,6.61-10.72,9.6-15.42,8.96-3.35-.45-4.74-2.66-4.2-6.64,1.34-9.94,10.59-19.18,27.76-27.71l.26.16c.49-.22.9-.29,1.27-.24.81.11,1.29,1,1.44,2.68-.1,1.46-.29,2.77-.54,3.93h0Z"/>
    <path class="cls-5" d="m104.91,158.58c-.08,0-.16,0-.24.04l-2.2.73c.27-2.83.63-5.3,1.07-7.34.49-2.28,1.07-4.1,1.73-5.42.05-.1.08-.22.08-.34v-.15l.04-.07c.14-.28.2-.49.2-.7,0-.99-.64-1.6-1.66-1.6-.35,0-1,.12-1.48.99l-1.97,4.19-.68,1.18c-.26.49-.59.99-.97,1.48-.4.51-.83,1.03-1.31,1.55-1.5,1.74-2.27,1.93-2.53,1.93-.48,0-.77-1.06-.77-2.78,0-.99.24-2.46.71-4.39.38-1.61.57-2.8.57-3.64,0-1.42-.73-2.27-1.97-2.27-.64,0-1.17.33-1.54,1.01-.97,2.31-1.46,5.66-1.46,9.96,0,.89.07,1.66.18,2.36-.11,0-.22,0-.34.04-.1.02-.19.06-.29.1-.07,0-.23,0-.57-.02-.55-.13-.84-.17-1.01-.18-.13-.16-.52-.82-.98-3.28-.42-2.41-1.14-5.18-2.99-5.18-.58,0-1.64.41-5.46,3.39-.64.52-1.17.94-1.59,1.26-.4.3-.69.51-.92.65-.36.25-.52.29-.52.31-.01-.02-.05-.07-.08-.19-.17-.92-.32-1.65-.47-2.21-.15-.59-.27-.98-.35-1.18-.6-1.72-1.64-2.09-2.41-2.09-1.79,0-3.44,1.04-4.92,3.09.01-.33.02-.74.02-1.21v-3.56c0-.94-.56-1.54-1.42-1.54s-1.46.56-1.6,1.54c-.04.5-.14,1.28-.3,2.32-.16,1.06-.35,2.36-.55,3.9-.33,2.41-.51,4.5-.55,6.24,0,1.19.71,1.91,1.91,1.91.37,0,.71-.11,1.01-.31.01,0,.03,0,.04,0,.43-.13.65-.55.83-1,.32-1.03.62-1.91.89-2.62.26-.68.53-1.23.79-1.64.87-1.41,1.79-2.13,2.79-2.19.17.22.63,1.02,1.38,3.9.23.76.98,1.14,2.24,1.14.68,0,1.19-.2,1.46-.54.53-.57,1.25-1.19,2.15-1.85.91-.67,1.82-1.27,2.72-1.77.84-.47,1.32-.63,1.59-.68.09.15.27.52.48,1.38.5,1.83.87,3.02,1.14,3.66.74,1.53,1.74,2.3,2.88,2.3h.01c1.1.14,2.05.04,2.81-.29.55-.22.93-.48,1.2-.75.62.84,1.48,1.29,2.59,1.29s2.3-.5,3.57-1.5c.24-.2.48-.39.7-.59-.01.21-.02.42-.03.64-.04.89-.04,1.88-.01,2.94-.15.13-.23.16-.25.17-.05.02-.09.04-.14.07-9.84,6.57-14.62,12.37-14.62,17.71,0,3.35,1.65,5.19,4.64,5.19s5.99-1.8,8.52-5.37c1.95-2.82,3.44-6.3,4.43-10.35.17-.71.33-1.59.5-2.61.14-.89.29-1.92.43-3.05,1.43-.39,2.56-.71,3.31-.96.71-.16,1.13-.68,1.13-1.4,0-1.06-.61-1.72-1.6-1.72v-.02Zm-8.19,7.28c.13,0,.25-.04.37-.11.03-.02.05-.03.07-.04.04.07.09.2.14.41.03.59.03,1.12,0,1.52-.27,1.49-.7,2.97-1.27,4.42s-1.29,2.88-2.15,4.25c-1.91,3-3.81,4.52-5.63,4.52-.78,0-1.5-.23-1.5-1.92,0-4.12,3.35-8.51,9.97-13.05h0Z"/>
  </g>
  <g class="wordmark-primary fill-primary">
    <path class="cls-7" d="m231.53,207.86c-1.7.55-4.83,3.25-6.68,15.11-.34,2.25-.54,4.68-.6,7.31h8.91v-22.45c-.26-.06-.52-.1-.77-.1-.3,0-.58.04-.87.14h0Z"/>
    <path class="cls-7" d="m24.38,231.45c-7.45,0-13.38-1.39-17.77-4.15-4.4-2.77-6.61-7.77-6.61-15.01v-8.84c0-7.02,2.45-11.74,7.35-14.16,2.34-1.14,5-1.7,7.98-1.7,2.62,0,5.21.36,7.77,1.07,2.56.7,4.61,1.48,6.17,2.34,0-2.63-1.06-4.42-3.19-5.38-2.13-.96-4.86-1.44-8.2-1.44l.96-8.09c6.81,0,11.83,1.08,15.07,3.24,3.23,2.17,5.21,4.74,5.96,7.72s1.12,6.81,1.12,11.5v31.72c-7.66.78-13.2,1.17-16.61,1.17h0Zm-.48-30.6c-2.31-.81-4.41-1.23-6.33-1.23-1.71,0-3.1.42-4.15,1.28-1.07.85-1.6,2.2-1.6,4.04v5.86c0,6.46,3.8,9.68,11.39,9.68,2.2,0,4.22-.17,6.07-.53v-16.51c-1.27-.92-3.07-1.79-5.38-2.6h0Z"/>
    <path class="cls-7" d="m68.78,231.34c-3.83,0-7.03-.42-9.59-1.28-4.19-1.41-7.22-3.6-9.1-6.55-1.88-2.94-2.82-7.07-2.82-12.4v-13.63c0-7.03,1.85-12.37,5.54-16.02,3.68-3.66,8.44-5.49,14.26-5.49,4.61,0,9.37,1.14,14.27,3.41l-3.2,10.12c-3.41-1.35-6.46-2.03-9.16-2.03-3.19,0-5.66.89-7.4,2.66-1.74,1.78-2.61,4.01-2.61,6.71v15.44c0,2.7.95,4.61,2.87,5.75,1.92,1.14,4.37,1.7,7.35,1.7,1.7,0,3.41-.17,5.11-.53,1.71-.36,3.05-.71,4.05-1.07l3.19,11.5c-4.4,1.14-8.66,1.71-12.77,1.71h0Z"/>
    <path class="cls-7" d="m106.48,231.45c-7.45,0-13.38-1.39-17.77-4.15-4.4-2.77-6.61-7.77-6.61-15.01v-8.84c0-7.02,2.45-11.74,7.35-14.16,2.34-1.14,5-1.7,7.98-1.7,2.62,0,5.21.36,7.77,1.07,2.56.7,4.61,1.48,6.17,2.34,0-2.63-1.06-4.42-3.19-5.38-2.13-.96-4.86-1.44-8.2-1.44l.96-8.09c6.81,0,11.83,1.08,15.07,3.24,3.23,2.17,5.21,4.74,5.96,7.72s1.12,6.81,1.12,11.5v31.72c-7.66.78-13.2,1.17-16.61,1.17h0Zm-.48-30.6c-2.31-.81-4.41-1.23-6.33-1.23-1.71,0-3.1.42-4.15,1.28-1.07.85-1.6,2.2-1.6,4.04v5.86c0,6.46,3.8,9.68,11.39,9.68,2.2,0,4.22-.17,6.07-.53v-16.51c-1.27-.92-3.07-1.79-5.38-2.6h0Z"/>
    <path class="cls-7" d="m138.42,178.11c2.9-1.42,6.31-2.13,10.22-2.13,3.33,0,6.14.42,8.41,1.28v-21.51h11.6v74.53l-5.85.53c-4.62.5-8.24.75-10.86.75s-5.09-.24-7.4-.75c-2.31-.49-4.6-1.31-6.87-2.44-2.56-1.27-4.58-3.16-6.07-5.64s-2.24-5.53-2.24-9.16v-20.12c0-7.45,3.02-12.56,9.05-15.33h0Zm11.5,9.68c-2.56,0-4.68.82-6.39,2.45-1.7,1.63-2.56,4.12-2.56,7.45v16.61c0,1.85,1,3.37,2.98,4.58s4.51,1.81,7.56,1.81c1.92,0,3.76-.25,5.54-.75v-30.34c-2.56-1.21-4.93-1.81-7.14-1.81h.01Z"/>
    <path class="cls-7" d="m186.74,214.41c0,1.99.55,3.54,1.65,4.63,1.1,1.1,2.71,1.66,4.85,1.66,3.26,0,7.63-1.42,13.09-4.26l4.27,10.11c-2.56,1.64-5.47,2.88-8.73,3.73-3.27.85-6.54,1.27-9.8,1.27-5.25,0-9.42-1.29-12.51-3.88-3.09-2.59-4.63-6.48-4.63-11.66v-21.82c0-5.75,1.79-10.22,5.38-13.41,3.58-3.2,8.32-4.79,14.21-4.79s10.49,1.59,13.79,4.74c3.29,3.16,4.95,7.54,4.95,13.14v16.19l-26.51,1.38v2.98h-.01Zm12.67-25.23c-1.34-1.14-3.02-1.71-5-1.71-2.7,0-4.65.71-5.85,2.13-1.21,1.42-1.81,2.98-1.81,4.68v6.39l14.7-.95v-5.64c0-2.13-.68-3.76-2.03-4.9h0Z"/>
    <path class="cls-7" d="m333.66,231.34c-3.83,0-7.03-.42-9.59-1.28-4.19-1.41-7.22-3.6-9.1-6.55-1.88-2.94-2.82-7.07-2.82-12.4v-13.63c0-7.03,1.85-12.37,5.54-16.02,3.68-3.66,8.44-5.49,14.26-5.49,4.61,0,9.37,1.14,14.27,3.41l-3.2,10.12c-3.41-1.35-6.46-2.03-9.16-2.03-3.19,0-5.66.89-7.4,2.66-1.74,1.78-2.61,4.01-2.61,6.71v15.44c0,2.7.95,4.61,2.87,5.75,1.92,1.14,4.37,1.7,7.35,1.7,1.7,0,3.41-.17,5.11-.53,1.71-.36,3.05-.71,4.05-1.07l3.19,11.5c-4.4,1.14-8.66,1.71-12.77,1.71h.01Z"/>
    <path class="cls-7" d="m283.09,180.61c-3.19-3.09-7.31-4.63-12.35-4.63-3.9,0-7.95.96-12.13,2.88-1.99,1-3.49,1.78-4.47,2.34-1.71-1.78-3.69-3.07-5.96-3.88-2.27-.82-4.61-1.22-7.02-1.22-2.98,0-5.64.53-7.98,1.6l-1.39-.75h-10.33v29.48c1.99-3.09,4.41-5.13,7.21-6.04,1.13-.37,2.3-.56,3.46-.56.35,0,.69.02,1.04.05v-10.38c2.7-1.56,5.28-2.34,7.77-2.34,2.77,0,4.97.95,6.6,2.87,1.64,1.92,2.45,4.65,2.45,8.2v32.04h11.71v-37.9c0-.49-.04-1.02-.11-1.6-.07-.56-.17-1.07-.31-1.49l1.8-.75c2.77-.99,4.97-1.49,6.61-1.49,2.27,0,3.92.86,4.95,2.56,1.02,1.71,1.54,4.47,1.54,8.31v32.36h11.71v-36.84c0-5.46-1.6-9.74-4.79-12.83h-.01Z"/>
    <path class="cls-7" d="m295.87,165.33c-1.27-1.27-1.92-2.77-1.92-4.47s.64-3.07,1.92-4.31c1.27-1.24,2.77-1.86,4.47-1.86s3.07.62,4.31,1.86,1.86,2.68,1.86,4.31-.62,3.2-1.86,4.47c-1.24,1.28-2.68,1.92-4.31,1.92s-3.2-.63-4.47-1.92Zm-1.71,11.61h11.71v53.34h-11.71v-53.34Z"/>
  </g>
</svg>
