<svg id="Book_Pattern" data-name="Book Pattern" xmlns="http://www.w3.org/2000/svg" xmlns:xlink="http://www.w3.org/1999/xlink" width="186" height="186" viewBox="0 0 186 186">
  <defs>
    <clipPath id="clip-path">
      <rect id="Rectangle_42" data-name="Rectangle 42" width="185.661" height="185.839" fill="none"/>
    </clipPath>
  </defs>
  <g id="Group_1" data-name="Group 1" clip-path="url(#clip-path)">
    <path id="Path_114" data-name="Path 114" d="M661.112,372.314a1.33,1.33,0,0,1-1.277-2.329l1.557-.855V366.1l-2.835,1.557a1.33,1.33,0,0,1-1.277-2.329l4.112-2.259V350.948L648.744,357.9a7.972,7.972,0,0,0-3.149,10.821L658.37,392a7.93,7.93,0,0,0,3.022,3.08V372.161Z" transform="translate(-475.73 -258.939)" fill="#fff"/>
    <path id="Path_115" data-name="Path 115" d="M541.026,8.3a2.188,2.188,0,0,1-2.1-3.836L547.045,0H528.99l5.233,9.54a6.557,6.557,0,0,0,8.907,2.6L562.3,1.605A2.208,2.208,0,0,0,563.416,0h-7.284Z" transform="translate(-390.401)" fill="#fff"/>
    <path id="Path_116" data-name="Path 116" d="M7.792,379.145l23.27-12.783a2.578,2.578,0,0,0-1.16-4.875l-3.248-5.92a4.227,4.227,0,0,0-.291-3.291l-11.5-20.958a3.981,3.981,0,0,0-5.407-1.575L0,334.939V347.06l9.85-5.411a1.348,1.348,0,0,1,1.867.489,1.333,1.333,0,0,1-.525,1.8L0,350.09v3.03l12.4-6.814a1.349,1.349,0,0,1,1.867.489,1.333,1.333,0,0,1-.525,1.8L0,356.151v22.923a7.953,7.953,0,0,0,7.792.071m-6.159-5.708a2.658,2.658,0,0,1,1.05-3.607l20.943-11.5,2.555,4.657-20.943,11.5a2.654,2.654,0,0,1-3.6-1.05" transform="translate(0 -242.929)" fill="#fff"/>
    <path id="Path_117" data-name="Path 117" d="M546.009,626.011a2.157,2.157,0,0,0-1.85-1.1l-2.675-4.877a3.48,3.48,0,0,0-.24-2.711l-9.47-17.264a3.279,3.279,0,0,0-4.453-1.3l-18.21,10a6.567,6.567,0,0,0-2.594,8.914l5.29,9.642h18.054l9.128-5.015,2.1,3.836-2.145,1.178h7.283a2.07,2.07,0,0,0-.223-1.312m-30.247-9.664a1.087,1.087,0,0,1,.379-1.456l11.5-6.318a1.111,1.111,0,0,1,1.538.4,1.1,1.1,0,0,1-.432,1.486l-11.554,6.348a1.086,1.086,0,0,1-1.431-.462m15.09-2.049L519.3,620.645a1.1,1.1,0,0,1-1.052-1.918l11.5-6.318a1.111,1.111,0,0,1,1.538.4,1.1,1.1,0,0,1-.432,1.485" transform="translate(-373.217 -441.485)" fill="#fff"/>
    <path id="Path_118" data-name="Path 118" d="M249.715,165.9l-8.187-14.924a10.654,10.654,0,0,0-.734-8.3L211.811,89.849a10.035,10.035,0,0,0-13.629-3.971l-55.728,30.614a20.1,20.1,0,0,0-7.937,27.278l32.2,58.7a20.068,20.068,0,0,0,27.259,7.943l58.661-32.226a6.5,6.5,0,0,0-2.924-12.289m-86.9-26.216a3.327,3.327,0,0,1,1.159-4.456l35.2-19.335a3.4,3.4,0,0,1,4.707,1.234,3.36,3.36,0,0,1-1.323,4.546L167.19,141.1a3.322,3.322,0,0,1-4.379-1.414m6.441,11.741a3.327,3.327,0,0,1,1.159-4.457l35.2-19.335a3.4,3.4,0,0,1,4.707,1.234,3.359,3.359,0,0,1-1.323,4.546l-35.36,19.425a3.322,3.322,0,0,1-4.379-1.414m18.286,47.249a6.7,6.7,0,0,1-6.44-11.741l52.8-29,6.44,11.74Z" transform="translate(-97.443 -62.447)" fill="#fff"/>
    <path id="Path_119" data-name="Path 119" d="M105.9,34.015,135.876,17.55a3.321,3.321,0,0,0-1.494-6.279L130.2,3.646A5.544,5.544,0,0,0,130.1,0H103.875L95.508,4.6a1.713,1.713,0,0,1-1.645-3L96.77,0H75.543L91.976,29.957A10.253,10.253,0,0,0,105.9,34.015m-6.581-12L126.3,7.2l3.291,6L102.613,28.016a3.421,3.421,0,0,1-3.291-6" transform="translate(-55.752 -0.001)" fill="#fff"/>
    <path id="Path_120" data-name="Path 120" d="M108.217,615.246a1.737,1.737,0,0,1,2.405.63,1.717,1.717,0,0,1-.676,2.323l-9.7,5.328h26.225a5.14,5.14,0,0,0-.276-.594l-14.808-26.994a5.127,5.127,0,0,0-6.964-2.029L75.949,609.553a10.268,10.268,0,0,0-4.056,13.937l.02.037H93.141ZM86.35,621.4a1.7,1.7,0,0,1,.592-2.277l17.983-9.879a1.737,1.737,0,0,1,2.4.63,1.716,1.716,0,0,1-.676,2.323l-18.067,9.925a1.7,1.7,0,0,1-2.238-.722" transform="translate(-52.123 -437.736)" fill="#fff"/>
  </g>
</svg>
